<svg width="24" height="24" viewBox="0 0 24 24" fill="none" xmlns="http://www.w3.org/2000/svg">
<path fill-rule="evenodd" clip-rule="evenodd" d="M7.82974 3.32999C8.04068 3.11931 8.32662 3.00098 8.62474 3.00098C8.92287 3.00098 9.2088 3.11931 9.41974 3.32999L17.2977 11.208C17.5084 11.4189 17.6268 11.7049 17.6268 12.003C17.6268 12.3011 17.5084 12.587 17.2977 12.798L9.41974 20.676C9.31675 20.7865 9.19255 20.8752 9.05455 20.9367C8.91655 20.9981 8.76758 21.0312 8.61653 21.0339C8.46547 21.0365 8.31543 21.0088 8.17535 20.9522C8.03526 20.8956 7.90801 20.8114 7.80118 20.7045C7.69436 20.5977 7.61014 20.4705 7.55356 20.3304C7.49698 20.1903 7.46919 20.0403 7.47185 19.8892C7.47452 19.7381 7.50758 19.5892 7.56907 19.4512C7.63056 19.3132 7.71921 19.189 7.82974 19.086L14.9097 12.0015L7.82974 4.91999C7.61907 4.70905 7.50073 4.42311 7.50073 4.12499C7.50073 3.82686 7.61907 3.54092 7.82974 3.32999Z" fill="white"/>
</svg>
