<svg width="420" height="640" viewBox="0 0 420 640" fill="none" xmlns="http://www.w3.org/2000/svg">
<path d="M133.55 24.7439L180.498 313.424L201.752 301.052L154.804 12.3718L133.55 24.7439Z" fill="url(#paint0_linear_42_13)"/>
<path d="M133.55 24.7439L180.498 313.424L159.245 301.052L112.296 12.3718L133.55 24.7439Z" fill="url(#paint1_linear_42_13)"/>
<path d="M112.296 12.372L133.55 24.7441L154.804 12.372L133.55 0L112.296 12.372Z" fill="url(#paint2_linear_42_13)"/>
<path opacity="0.02" d="M0 395.587L202.387 275.04L420 395.27L213.172 520.577L0 395.587Z" fill="black" fill-opacity="0.2"/>
<path opacity="0.036364" d="M7.29614 394.636L202.07 278.212L415.242 395.588L214.124 516.453L7.29614 394.636Z" fill="black" fill-opacity="0.2"/>
<path opacity="0.052727" d="M14.5922 393.684L201.752 281.701L410.166 395.587L215.393 512.329L14.5922 393.684Z" fill="black" fill-opacity="0.2"/>
<path opacity="0.069091" d="M21.8882 392.415L201.435 285.191L405.091 395.587L216.344 508.205L21.8882 392.415Z" fill="black" fill-opacity="0.2"/>
<path opacity="0.085455" d="M29.1843 391.463L201.118 288.363L400.015 395.587L217.296 504.081L29.1843 391.463Z" fill="black" fill-opacity="0.2"/>
<path opacity="0.1018" d="M36.4803 390.512L200.801 291.853L395.257 395.587L218.248 499.957L36.4803 390.512Z" fill="black" fill-opacity="0.2"/>
<path opacity="0.1182" d="M43.7765 389.243L200.483 295.025L390.181 395.587L219.199 495.833L43.7765 389.243Z" fill="black" fill-opacity="0.2"/>
<path opacity="0.1345" d="M51.0725 388.291L200.166 298.515L385.106 395.587L220.151 491.709L51.0725 388.291Z" fill="black" fill-opacity="0.2"/>
<path opacity="0.1509" d="M58.3685 387.339L199.849 302.004L380.03 395.587L221.103 487.585L58.3685 387.339Z" fill="black" fill-opacity="0.2"/>
<path opacity="0.1673" d="M65.6647 386.071L199.532 305.177L375.272 395.905L222.054 483.461L65.6647 386.071Z" fill="black" fill-opacity="0.2"/>
<path opacity="0.1836" d="M72.9607 385.119L199.214 308.666L370.196 395.905L223.006 479.337L72.9607 385.119Z" fill="black" fill-opacity="0.2"/>
<path opacity="0.2" d="M80.2568 383.85L198.58 311.838L365.121 395.905L223.958 474.895L80.2568 383.85Z" fill="black" fill-opacity="0.1"/>
<path d="M133.55 24.7439L21.2538 407.959L42.5076 395.587L154.804 12.3718L133.55 24.7439Z" fill="url(#paint3_linear_42_13)"/>
<path d="M133.55 24.7439L21.2538 407.959L0 395.587L112.296 12.3718L133.55 24.7439Z" fill="url(#paint4_linear_42_13)"/>
<path d="M112.296 12.372L133.55 24.7441L154.804 12.372L133.55 0L112.296 12.372Z" fill="url(#paint5_linear_42_13)"/>
<path d="M218.248 424.773L215.076 433.338L45.0453 336.582L48.2175 328.017L218.248 424.773Z" fill="url(#paint6_linear_42_13)"/>
<path d="M48.2174 328.017L218.248 424.773L230.619 417.794L60.2718 321.038L48.2174 328.017Z" fill="url(#paint7_linear_42_13)"/>
<path d="M325.785 134.823L372.734 423.504L394.305 411.132L347.356 122.451L325.785 134.823Z" fill="url(#paint8_linear_42_13)"/>
<path d="M326.103 134.823L372.734 423.504L351.48 411.132L304.849 122.451L326.103 134.823Z" fill="url(#paint9_linear_42_13)"/>
<path d="M304.849 122.451L326.103 134.823L347.356 122.451L326.103 110.079L304.849 122.451Z" fill="url(#paint10_linear_42_13)"/>
<path d="M325.786 134.823L213.49 518.039L235.06 505.667L347.357 122.451L325.786 134.823Z" fill="url(#paint11_linear_42_13)"/>
<path d="M326.103 134.823L213.807 518.039L192.553 505.667L304.849 122.451L326.103 134.823Z" fill="url(#paint12_linear_42_13)"/>
<path d="M304.849 122.451L326.103 134.823L347.356 122.451L326.103 110.079L304.849 122.451Z" fill="url(#paint13_linear_42_13)"/>
<path d="M290.891 356.568L37.7493 210.959C26.9638 204.932 21.571 189.07 25.6949 175.746L37.7493 135.141C39.6526 128.479 31.7221 128.162 36.4804 125.624C36.7976 125.307 49.4865 120.865 49.8037 120.548C54.2448 118.962 59.3203 119.279 64.0786 121.817L317.221 267.426C328.006 273.454 333.399 289.315 329.275 302.639L317.221 343.245C315 350.541 310.559 355.617 305.166 357.52C304.849 357.52 292.16 362.278 291.843 362.596C287.719 364.499 295.65 359.423 290.891 356.568Z" fill="url(#paint14_linear_42_13)"/>
<path d="M278.202 361.644L25.0605 215.717C14.275 209.69 8.88221 193.829 13.0061 180.505L25.0605 139.899C29.1843 126.575 40.9215 120.865 51.707 126.893L304.532 272.819C315.317 278.847 320.71 294.708 316.586 308.032L304.532 348.637C300.725 361.961 288.671 367.671 278.202 361.644Z" fill="url(#paint15_radial_42_13)"/>
<path d="M321.344 254.737L68.2024 109.128C57.4169 103.1 52.0242 87.2388 56.148 73.9151L68.2024 33.3095C70.1057 26.6476 62.1752 26.3304 66.9335 23.7925C67.2508 23.4753 79.9396 19.0341 80.2568 18.7168C84.6979 17.1307 89.7734 17.4479 94.5317 19.9858L347.674 165.595C358.459 171.622 363.852 187.484 359.728 200.808L347.674 241.413C345.453 248.71 341.012 253.785 335.619 255.689C335.302 255.689 322.613 260.447 322.296 260.764C318.172 262.668 326.103 257.592 321.344 254.737Z" fill="url(#paint16_linear_42_13)"/>
<path d="M308.656 259.813L55.5136 113.886C44.7281 107.859 39.3353 91.9972 43.4592 78.6735L55.5136 38.0679C59.6374 24.7442 71.3746 19.034 82.1601 25.0614L335.302 170.671C346.088 176.698 351.48 192.56 347.356 205.883L335.302 246.489C331.178 260.13 319.124 265.84 308.656 259.813Z" fill="url(#paint17_linear_42_13)"/>
<path d="M306.752 271.867L53.6103 126.258C48.852 123.72 44.0937 123.086 39.6526 124.672C43.142 124.355 46.6314 124.989 49.8036 126.893L302.946 272.819C313.731 278.847 319.124 294.708 315 308.032L302.946 348.638C301.042 355.299 297.236 359.741 292.477 362.278C293.746 362.278 295.015 361.961 296.284 361.327C301.042 358.789 304.849 354.348 306.752 347.686L318.807 307.08C322.613 293.756 317.221 278.212 306.752 271.867Z" fill="url(#paint18_radial_42_13)"/>
<path d="M337.206 170.036L84.0635 24.427C79.3052 21.8891 74.5469 21.2547 70.1058 22.8408C73.5953 22.5236 77.0847 23.1581 80.2569 25.0615L333.399 170.671C344.184 176.698 349.577 192.56 345.453 205.883L333.399 246.489C331.496 253.151 327.689 257.592 322.931 260.13C324.2 260.13 325.468 259.813 326.737 259.178C331.496 256.64 335.302 252.199 337.206 245.537L349.26 204.932C353.384 191.925 347.674 176.381 337.206 170.036Z" fill="url(#paint19_radial_42_13)"/>
<path opacity="0.02" d="M269.003 336.583L45.6798 208.421L96.1179 41.5576L319.441 169.719L269.003 336.583Z" fill="black"/>
<path opacity="0.045455" d="M268.369 335.314L46.9487 208.421L96.7524 43.4609L318.172 170.354L268.369 335.314Z" fill="black"/>
<path opacity="0.070909" d="M267.417 334.362L48.2177 208.421L97.3868 45.3645L316.903 170.988L267.417 334.362Z" fill="black"/>
<path opacity="0.096364" d="M266.783 333.093L49.4865 208.421L98.0212 47.2678L315.317 171.94L266.783 333.093Z" fill="black"/>
<path opacity="0.1218" d="M265.831 331.824L50.7554 208.421L98.6557 49.1711L314.048 172.574L265.831 331.824Z" fill="black"/>
<path opacity="0.1473" d="M265.196 330.555L52.0242 208.421L99.6072 50.7573L312.462 173.209L265.196 330.555Z" fill="black"/>
<path opacity="0.1727" d="M264.245 329.604L53.2931 208.421L100.242 52.6606L311.193 173.843L264.245 329.604Z" fill="black"/>
<path opacity="0.1982" d="M263.61 328.335L54.562 208.421L100.876 54.564L309.607 174.477L263.61 328.335Z" fill="black"/>
<path opacity="0.2236" d="M262.659 327.066L55.8308 208.421L101.511 56.4675L308.338 175.112L262.659 327.066Z" fill="black"/>
<path opacity="0.2491" d="M262.024 325.797L57.0997 208.421L102.145 58.3708L307.07 175.746L262.024 325.797Z" fill="black"/>
<path opacity="0.2745" d="M261.073 324.845L58.3687 208.421L102.78 59.957L305.483 176.381L261.073 324.845Z" fill="black"/>
<path opacity="0.3" d="M260.438 323.576L59.6376 208.421L103.414 61.8604L304.215 177.333L260.438 323.576Z" fill="black"/>
<path d="M263.927 332.459L47.9003 208.421L94.8489 51.0745L310.876 175.112L263.927 332.459Z" fill="#D6E3D6"/>
<path d="M103.731 71.0599L294.698 180.505L255.045 312.473L64.3958 202.711L103.731 71.0599ZM101.511 65.667L59.9547 204.614L257.266 317.866L298.822 178.919L101.511 65.667Z" fill="#2F7334"/>
<path d="M94.849 51.0745L93.8973 53.6123L308.338 176.064L262.024 330.873L263.928 332.459L310.876 175.112L94.849 51.0745Z" fill="url(#paint20_radial_42_13)"/>
<path d="M98.9728 145.61C97.3867 141.803 97.0695 137.362 98.6556 132.603L105 111.349C105 111.031 105.317 110.714 105.634 110.714C105.952 110.714 106.269 110.714 106.586 110.714L111.027 113.252C111.344 113.569 111.662 113.886 111.662 114.204C111.662 114.521 111.979 114.838 111.662 115.473L105.317 136.727C104.366 139.582 104.366 141.803 105.317 144.023C106.269 146.244 107.538 147.83 109.758 149.099C111.979 150.368 113.882 150.685 115.468 150.051C117.054 149.416 118.323 147.513 119.275 144.975L125.619 123.721C125.619 123.403 125.937 123.086 126.254 123.086C126.571 123.086 126.888 123.086 127.205 123.086L131.647 125.624C131.964 125.941 132.281 126.258 132.281 126.576C132.281 126.893 132.281 127.21 132.281 127.845L125.937 149.099C124.35 153.858 122.13 157.03 118.958 157.982C115.785 158.933 111.979 158.299 107.855 155.761C103.731 152.589 100.559 149.416 98.9728 145.61Z" fill="#2F7334"/>
<path d="M131.012 167.181C131.012 166.864 130.695 166.547 131.012 166.23L141.163 132.286C141.163 131.969 141.48 131.651 141.798 131.651C142.115 131.651 142.432 131.651 142.749 131.651L146.556 133.872C147.19 134.189 147.508 134.824 147.825 135.458L154.804 166.547L161.465 144.023C161.465 143.706 161.782 143.389 162.1 143.389C162.417 143.389 162.734 143.389 163.051 143.389L167.175 145.927C167.492 146.244 167.81 146.561 167.81 146.878C167.81 147.196 168.127 147.513 167.81 148.147L157.659 181.774C157.659 182.091 157.341 182.408 157.024 182.408C156.707 182.408 156.39 182.408 156.073 182.408L152.266 179.871C151.631 179.553 151.314 178.919 150.997 178.284L144.018 147.83L137.356 170.036C137.356 170.354 137.039 170.671 136.722 170.671C136.405 170.671 136.088 170.671 135.77 170.671L131.647 168.133C131.329 167.816 131.012 167.499 131.012 167.181Z" fill="#2F7334"/>
<path d="M166.541 187.801C166.541 187.484 166.224 187.167 166.541 186.85L176.692 152.906C176.692 152.589 177.009 152.271 177.326 152.271C177.643 152.271 177.961 152.271 178.278 152.271L190.015 158.933C199.532 164.326 203.021 171.94 200.483 181.457C199.849 183.36 199.532 184.946 199.214 185.581C198.897 186.215 198.58 187.484 197.946 189.388C196.36 194.146 194.139 197.001 190.967 197.953C188.112 198.905 183.988 197.953 179.23 195.415L167.175 188.436C166.858 188.436 166.541 188.119 166.541 187.801ZM180.816 189.388C183.353 190.974 185.574 191.291 187.16 190.656C188.746 190.022 190.015 188.436 190.967 185.264C191.601 183.36 192.236 182.091 192.236 181.457C192.553 180.822 192.87 179.553 193.187 177.65C193.822 174.795 193.822 172.257 193.187 170.354C192.236 168.45 190.65 166.547 187.795 164.961L181.767 161.471L174.471 185.898L180.816 189.388Z" fill="#2F7334"/>
<path d="M201.752 207.787C201.752 207.47 201.435 207.153 201.752 206.835L211.903 172.892C211.903 172.574 212.221 172.257 212.538 172.257C212.855 172.257 213.172 172.257 213.489 172.257L234.743 184.629C235.06 184.946 235.378 185.264 235.378 185.581C235.378 185.898 235.695 186.215 235.378 186.85L234.743 190.022C234.743 190.339 234.426 190.657 234.109 190.657C233.792 190.657 233.474 190.657 233.157 190.339L217.296 181.14L214.441 190.339L229.351 198.905C229.668 199.222 229.985 199.539 229.985 199.856C229.985 200.173 230.302 200.491 229.985 201.125L229.033 204.297C229.033 204.615 228.716 204.932 228.399 204.932C228.082 204.932 227.764 204.932 227.447 204.615L212.538 196.049L209.683 205.566L225.861 215.083C226.178 215.401 226.496 215.718 226.496 216.035C226.813 216.352 226.813 216.669 226.496 216.987L225.544 220.476C225.544 220.793 225.227 221.111 224.909 221.111C224.592 221.111 224.275 221.111 223.958 220.793L202.07 208.421C202.387 208.739 202.07 208.421 201.752 207.787Z" fill="#2F7334"/>
<path d="M233.474 225.869C233.474 225.552 233.157 225.235 233.474 224.918L243.625 190.974C243.625 190.657 243.943 190.339 244.26 190.339C244.577 190.339 244.894 190.339 245.212 190.339L257.9 197.636C262.024 199.856 264.562 202.711 266.465 205.884C268.051 209.056 268.369 212.546 267.417 216.352C266.783 218.89 265.514 220.794 263.928 221.745C262.341 222.697 260.438 223.014 257.9 222.697L261.073 240.145C261.073 240.462 261.073 240.779 261.073 240.779C261.073 241.096 260.755 241.414 260.438 241.414C260.121 241.414 259.804 241.414 259.486 241.414L255.045 238.876C254.411 238.559 254.094 238.241 254.094 237.924C253.776 237.607 253.776 236.972 253.776 236.338L251.239 220.476L244.577 216.67L240.77 229.042C240.77 229.359 240.453 229.676 240.136 229.676C239.819 229.676 239.502 229.676 239.184 229.676L234.743 227.138C233.792 226.504 233.474 226.504 233.474 225.869ZM252.508 214.449C254.411 215.718 255.997 216.035 257.266 215.718C258.535 215.401 259.486 214.449 259.804 212.546C260.438 210.642 260.121 209.056 259.486 207.787C258.852 206.201 257.583 204.932 255.68 203.98L249.018 200.174L245.846 210.959L252.508 214.449Z" fill="#2F7334"/>
<path d="M83.1118 182.726C82.4773 180.822 82.4773 178.919 82.7945 177.015C82.7945 176.698 83.1118 175.747 83.429 174.795C83.7462 173.843 84.0634 173.209 84.0634 172.574C84.6979 170.671 85.6495 169.402 87.2356 168.767C88.5045 168.133 90.4078 168.45 92.3112 169.719C93.58 170.354 94.8489 171.305 95.4834 172.574C96.1178 173.843 96.7523 174.795 97.0695 175.747C97.3867 176.698 97.3867 177.967 97.0695 178.919C97.0695 178.919 97.0695 179.236 96.7523 179.236H96.435L95.1661 178.284L94.8489 177.967C94.8489 177.967 94.8489 177.65 94.8489 177.333C94.8489 176.064 94.8489 174.795 94.2145 173.843C93.58 172.891 92.9456 172.257 91.6767 171.623C89.139 170.036 87.2356 170.988 86.284 173.843C86.284 174.16 85.9668 174.795 85.6495 175.747C85.3323 176.698 85.3323 177.333 85.0151 177.967C84.0634 181.139 85.0151 183.36 87.5529 184.946C88.8217 185.581 89.7734 185.898 90.4078 185.898C91.3595 185.898 91.9939 185.263 92.6284 183.995C92.6284 183.677 92.9456 183.677 92.9456 183.677H93.2628L94.5317 184.312L94.8489 184.629V184.946C94.5317 185.898 93.8973 186.532 93.2628 187.167C92.6284 187.801 91.6767 188.119 90.4078 187.801C89.4562 187.801 88.1873 187.484 86.9184 186.532C85.0151 185.898 83.7462 184.629 83.1118 182.726Z" fill="#2F7334"/>
<path d="M98.6556 191.925C98.0212 190.339 97.7039 188.119 98.3384 185.898C98.3384 185.264 98.6556 184.629 98.9728 183.677C99.29 182.726 99.29 182.091 99.6073 181.774C100.242 179.553 101.511 178.284 102.779 177.65C104.366 177.016 105.952 177.333 107.855 178.602C109.758 179.553 111.027 181.14 111.979 182.726C112.613 184.629 112.931 186.532 112.296 188.753C111.979 189.705 111.979 190.339 111.662 190.656C111.662 190.974 111.344 191.608 111.027 192.56C110.393 194.78 109.124 196.049 107.855 196.684C106.586 197.318 104.683 197.001 102.779 195.732C100.876 195.098 99.29 193.512 98.6556 191.925ZM106.586 194.463C107.538 194.146 108.172 193.194 108.807 191.608C109.124 190.656 109.441 190.022 109.441 189.705C109.441 189.388 109.758 188.753 110.076 187.801C110.393 186.215 110.393 184.629 110.076 183.677C109.441 182.408 108.807 181.457 107.538 180.822C106.269 180.188 105.317 179.871 104.366 180.188C103.414 180.505 102.779 181.457 102.145 183.043C102.145 183.36 101.828 183.995 101.511 184.946C101.193 185.898 101.193 186.532 100.876 186.85C100.559 188.436 100.559 190.022 100.876 190.974C101.511 192.243 102.145 193.194 103.414 193.829C104.683 194.78 105.634 194.78 106.586 194.463Z" fill="#2F7334"/>
<path d="M113.248 201.442V201.125L118.006 185.264C118.006 184.946 118.006 184.946 118.323 184.946H118.64L119.592 185.581L119.909 185.898V186.215L123.716 203.028L127.523 190.656C127.523 190.339 127.523 190.339 127.84 190.339H128.157L129.109 190.974C129.426 190.974 129.426 191.291 129.426 191.291C129.426 191.291 129.426 191.608 129.426 191.925L124.668 207.787C124.668 208.104 124.668 208.104 124.35 208.104H124.033L123.082 207.47C122.764 207.47 122.764 207.152 122.764 206.835L118.958 190.022L115.468 202.077C115.468 202.077 115.468 202.394 115.151 202.394H114.834L113.882 201.76C113.248 201.76 113.248 201.76 113.248 201.442Z" fill="#2F7334"/>
<path d="M131.012 211.594C130.378 210.642 129.743 209.69 129.426 208.739C129.109 207.787 129.109 206.835 129.426 206.201C129.426 206.201 129.426 205.883 129.743 205.883H130.06L131.012 206.518C131.329 206.518 131.329 206.835 131.329 207.47C131.329 208.104 131.329 209.056 131.964 210.007C132.598 210.959 133.233 211.594 134.502 212.228C135.77 212.863 136.722 213.18 137.674 213.18C138.308 213.18 138.943 212.545 139.26 211.594C139.577 210.959 139.26 210.642 139.26 210.007C138.943 209.373 138.625 209.056 138.308 208.421C137.674 207.787 137.039 206.835 135.77 205.883C134.819 204.932 133.867 203.98 133.233 203.028C132.598 202.077 132.281 201.442 132.281 200.491C131.964 199.856 132.281 198.904 132.281 197.953C132.598 197.001 132.915 196.366 133.55 196.049C134.184 195.732 135.136 195.415 136.088 195.415C137.039 195.415 137.991 195.732 139.26 196.366C140.529 197.001 141.48 197.953 142.115 198.904C142.749 199.856 143.384 200.808 143.384 201.759C143.701 202.711 143.701 203.346 143.384 204.297C143.384 204.297 143.384 204.615 143.067 204.615H142.749L141.48 203.98L141.163 203.663C141.163 203.663 141.163 203.346 141.163 203.028C141.163 202.394 141.163 201.442 140.529 200.808C139.894 199.856 139.26 199.222 138.308 198.904C137.357 198.27 136.405 197.953 135.77 198.27C135.136 198.27 134.502 198.904 134.184 199.539C133.867 200.173 133.867 200.491 134.184 201.125C134.502 201.759 134.819 202.077 135.136 202.711C135.77 203.346 136.405 203.98 137.357 205.249C138.625 206.518 139.26 207.47 139.894 208.104C140.529 209.056 140.846 209.69 141.163 210.325C141.48 210.959 141.163 211.911 141.163 212.863C140.846 214.449 139.894 215.4 138.625 215.4C137.357 215.718 135.77 215.083 133.867 214.131C132.915 213.497 131.964 212.545 131.012 211.594Z" fill="#2F7334"/>
<path d="M147.19 221.111C147.19 220.793 147.19 220.793 147.19 220.476L151.314 206.201L146.873 203.663L146.556 203.346C146.556 203.029 146.556 203.029 146.556 202.711L146.873 201.76C146.873 201.442 146.873 201.442 147.19 201.442H147.508L158.293 207.787C158.61 207.787 158.61 208.104 158.61 208.104C158.61 208.104 158.61 208.421 158.61 208.739V209.69C158.61 210.008 158.61 210.008 158.293 210.008H157.976L153.535 207.47L149.411 222.062C149.411 222.062 149.411 222.38 149.094 222.38H148.776L147.825 221.745C147.508 221.428 147.19 221.428 147.19 221.111Z" fill="#2F7334"/>
<path d="M157.341 226.821C157.341 226.821 157.341 226.504 157.341 226.186L162.1 210.325C162.1 210.008 162.1 210.008 162.417 210.008H162.734L168.127 213.18C169.713 214.132 170.982 215.401 171.616 216.669C172.251 217.938 172.568 219.525 171.934 221.428C171.616 222.697 170.982 223.649 170.03 223.966C169.079 224.283 168.127 224.6 167.175 224.283L168.761 232.848V233.165C168.761 233.165 168.761 233.483 168.444 233.483H168.127L167.175 232.848C166.858 232.848 166.858 232.531 166.541 232.214C166.224 231.897 166.224 231.897 166.224 231.579L164.637 223.331L160.514 221.111L158.61 227.455C158.61 227.773 158.61 227.773 158.293 227.773H157.976L157.024 227.138C157.659 227.138 157.341 227.138 157.341 226.821ZM165.906 221.745C168.127 223.014 169.713 222.697 170.347 220.476C170.982 218.573 170.03 216.669 167.81 215.401L164.003 213.18L162.1 219.207L165.906 221.745Z" fill="#2F7334"/>
<path d="M174.471 235.386C173.837 233.8 173.837 231.579 174.471 229.359L177.326 219.525C177.326 219.207 177.326 219.207 177.644 219.207H177.961L178.912 219.842C179.23 219.842 179.23 220.159 179.23 220.159C179.23 220.476 179.23 220.476 179.23 220.793L176.375 230.628C175.74 232.214 175.74 233.483 176.375 234.752C176.692 236.021 177.644 236.972 178.912 237.607C180.181 238.241 181.133 238.558 182.085 238.241C183.036 237.924 183.671 236.972 184.305 235.386L187.16 225.235C187.16 224.917 187.16 224.917 187.477 224.917H187.795L188.746 225.552L189.063 225.869C189.063 226.186 189.063 226.186 189.063 226.504L186.208 236.338C185.574 238.558 184.622 240.145 183.036 240.462C181.767 241.096 179.864 240.779 177.961 239.51C176.375 238.558 175.106 236.972 174.471 235.386Z" fill="#2F7334"/>
<path d="M190.332 244.269C189.698 242.365 189.698 240.462 190.015 238.558C190.015 238.241 190.332 237.289 190.65 236.338C190.967 235.386 191.284 234.752 191.284 234.117C191.918 232.214 192.87 230.945 194.456 230.31C195.725 229.676 197.628 229.993 199.532 231.262C200.801 231.897 202.07 232.848 202.704 234.117C203.338 235.069 203.973 236.338 204.29 237.289C204.607 238.241 204.607 239.51 204.29 240.462C204.29 240.462 204.29 240.779 203.973 240.779H203.656L202.387 240.145L202.07 239.827C202.07 239.827 202.07 239.51 202.07 239.193C202.07 237.924 202.07 236.655 201.435 235.703C200.801 234.752 200.166 234.117 198.897 233.483C196.36 231.897 194.456 232.848 193.505 235.703C193.505 236.021 193.187 236.655 192.87 237.607C192.553 238.558 192.553 239.193 192.236 239.827C191.284 243 192.236 245.22 194.773 246.806C196.042 247.441 196.994 247.758 197.628 247.758C198.58 247.758 199.215 247.124 199.849 245.855C199.849 245.538 200.166 245.538 200.166 245.538H200.483L201.752 246.172L202.07 246.489V246.806C201.752 247.758 201.118 248.393 200.483 249.027C199.849 249.662 198.897 249.979 197.628 249.662C196.677 249.662 195.408 249.344 194.139 248.393C192.553 247.758 191.284 246.172 190.332 244.269Z" fill="#2F7334"/>
<path d="M208.097 256.006C208.097 255.689 208.097 255.689 208.097 255.372L212.538 241.096L208.097 238.559L207.779 238.241C207.779 237.924 207.779 237.924 207.779 237.607L208.097 236.655C208.097 236.338 208.097 236.338 208.414 236.338H208.731L219.517 242.683C219.834 242.683 219.834 243 219.834 243C219.834 243.317 219.834 243.317 219.834 243.634L219.517 244.586C219.517 244.903 219.517 244.903 219.199 244.903H218.882L214.441 242.365L210.317 256.958C210.317 257.275 210.317 257.275 210 257.275H209.683L208.731 256.641C208.414 256.323 208.097 256.323 208.097 256.006Z" fill="#2F7334"/>
<path d="M218.248 262.033C218.248 262.033 218.248 261.716 218.248 261.399L223.006 245.537C223.006 245.22 223.006 245.22 223.323 245.22H223.641L224.909 245.855C225.227 245.855 225.227 246.172 225.227 246.172C225.227 246.172 225.227 246.489 225.227 246.806L220.468 262.668C220.468 262.668 220.468 262.985 220.151 262.985H219.834L218.565 262.351L218.248 262.033Z" fill="#2F7334"/>
<path d="M226.495 265.206C225.861 263.62 225.544 261.399 226.178 259.179C226.178 258.544 226.495 257.91 226.813 256.958C227.13 256.006 227.13 255.372 227.447 255.055C228.082 252.834 229.35 251.565 230.619 250.931C232.205 250.296 233.792 250.613 235.695 251.882C237.598 252.834 238.867 254.42 239.819 256.006C240.453 257.91 240.77 259.813 240.136 262.034C239.819 262.985 239.819 263.62 239.501 263.937C239.501 264.254 239.184 264.889 238.867 265.84C238.233 268.061 236.964 269.33 235.695 269.964C234.426 270.599 232.523 270.282 230.619 269.013C228.399 268.378 227.13 266.792 226.495 265.206ZM234.109 267.744C235.06 267.427 235.695 266.475 236.329 264.889C236.646 263.937 236.964 263.303 236.964 262.985C236.964 262.668 237.281 262.034 237.598 261.082C237.915 259.496 237.915 257.91 237.598 256.641C236.964 255.372 236.329 254.42 235.06 253.786C233.792 253.151 232.84 252.834 231.888 253.151C230.937 253.468 230.302 254.42 229.668 256.006C229.668 256.323 229.35 256.958 229.033 257.91C228.716 259.179 228.399 259.813 228.399 260.13C228.082 261.716 228.082 263.303 228.399 264.254C229.033 265.523 229.668 266.475 230.937 267.109C232.205 268.061 233.157 268.061 234.109 267.744Z" fill="#2F7334"/>
<path d="M240.77 274.723C240.77 274.723 240.77 274.406 240.77 274.088L245.529 258.227C245.529 257.91 245.529 257.91 245.846 257.91H246.163L247.115 258.544L247.432 258.861V259.179L251.239 275.992L255.045 263.62C255.045 263.303 255.045 263.303 255.363 263.303H255.68L256.631 263.937C256.949 263.937 256.949 264.254 256.949 264.254C256.949 264.572 256.949 264.572 256.949 264.889L252.19 280.75C252.19 281.068 252.19 281.068 251.873 281.068H251.556L250.604 280.433C250.287 280.433 250.287 280.116 250.287 279.799L246.48 263.303L242.991 275.357C242.991 275.357 242.991 275.675 242.674 275.675H242.356L241.088 275.357C241.088 275.04 240.77 275.04 240.77 274.723Z" fill="#2F7334"/>
<path d="M370.568 556.772V553.662H145.377V559.261C144.133 569.525 149.421 579.479 161.862 586.633L213.494 616.494C238.377 630.802 281.611 628.935 310.227 612.45L347.24 590.988C364.036 581.345 372.123 568.592 370.568 556.772Z" fill="url(#paint21_linear_42_13)"/>
<path d="M213.494 607.784L161.862 577.924C136.979 563.615 140.09 538.732 168.705 522.246L205.718 500.784C234.334 484.298 277.568 482.432 302.451 496.74L354.083 526.601C378.966 540.909 375.856 565.793 347.24 582.278L310.227 603.741C281.611 620.226 238.377 622.092 213.494 607.784Z" fill="url(#paint22_linear_42_13)"/>
<path d="M347.24 580.101L310.227 601.563C281.611 618.049 238.377 619.915 213.494 605.607L161.862 575.746C151.287 569.836 145.999 561.749 145.377 553.351C144.755 562.993 150.043 572.325 161.862 579.168L213.494 609.028C238.377 623.337 281.611 621.47 310.227 604.985L347.24 583.522C363.725 573.88 371.812 561.749 370.879 550.24C369.946 560.816 362.17 571.703 347.24 580.101Z" fill="url(#paint23_radial_42_13)"/>
<path opacity="0.2" d="M370.568 569.836V566.726C369.324 576.679 361.237 586.944 347.24 595.342L310.227 616.805C281.611 633.29 238.377 635.156 213.494 620.848L161.862 590.988C151.598 585.078 145.999 577.301 145.377 568.903V572.636C144.133 582.9 149.421 592.854 161.862 600.008L213.494 629.869C238.377 644.177 281.611 642.31 310.227 625.825L347.24 604.363C364.036 594.409 372.123 581.656 370.568 569.836Z" fill="url(#paint24_linear_42_13)"/>
<path d="M280.678 381.03H236.511L188.3 543.708C188.3 544.019 188.3 544.019 188.3 544.33C188.3 567.037 219.715 585.078 258.595 585.078C297.474 585.078 328.889 566.726 328.889 544.33C328.889 544.019 328.889 544.019 328.889 543.708L280.678 381.03Z" fill="url(#paint25_linear_42_13)"/>
<path d="M280.678 381.341C280.678 388.495 270.725 394.094 258.595 394.094C246.464 394.094 236.511 388.184 236.511 381.341C236.511 374.187 246.464 368.588 258.595 368.588C270.725 368.277 280.678 374.187 280.678 381.341Z" fill="url(#paint26_linear_42_13)"/>
<path d="M328.889 544.019L319.247 511.67C319.247 511.981 319.247 512.293 319.247 512.915C319.247 532.511 292.187 548.374 258.595 548.374C225.003 548.374 197.942 532.511 197.942 512.915C197.942 512.604 197.942 512.293 197.942 511.67L188.3 544.019C188.3 544.33 188.3 544.33 188.3 544.641C188.3 567.348 219.715 585.389 258.595 585.389C297.474 585.389 328.889 567.037 328.889 544.641C328.889 544.33 328.578 544.019 328.889 544.019Z" fill="url(#paint27_linear_42_13)"/>
<path d="M328.889 544.019L319.247 511.67C319.247 511.981 319.247 512.293 319.247 512.915C319.247 532.511 292.187 548.374 258.595 548.374C225.003 548.374 197.942 532.511 197.942 512.915C197.942 512.604 197.942 512.293 197.942 511.67L188.3 544.019C188.3 544.33 188.3 544.33 188.3 544.641C188.3 567.348 219.715 585.389 258.595 585.389C297.474 585.389 328.889 567.037 328.889 544.641C328.889 544.33 328.578 544.019 328.889 544.019Z" fill="url(#paint28_linear_42_13)"/>
<path d="M299.963 446.35C299.963 446.661 299.963 446.661 299.963 446.972C299.963 460.348 281.3 471.234 258.595 471.234C235.578 471.234 217.227 460.348 217.227 446.972C217.227 446.661 217.227 446.35 217.227 446.35L207.585 479.321C207.585 479.632 207.585 479.944 207.585 479.944C207.585 496.429 230.601 509.804 258.595 509.804C286.899 509.804 309.605 496.429 309.605 479.944C309.605 479.944 309.605 479.632 309.605 479.321L299.963 446.35Z" fill="url(#paint29_linear_42_13)"/>
<path d="M299.963 446.35C299.963 446.661 299.963 446.661 299.963 446.972C299.963 460.348 281.3 471.234 258.595 471.234C235.578 471.234 217.227 460.348 217.227 446.972C217.227 446.661 217.227 446.35 217.227 446.35L207.585 479.321C207.585 479.632 207.585 479.944 207.585 479.944C207.585 496.429 230.601 509.804 258.595 509.804C286.899 509.804 309.605 496.429 309.605 479.944C309.605 479.944 309.605 479.632 309.605 479.321L299.963 446.35Z" fill="url(#paint30_linear_42_13)"/>
<path d="M280.678 381.03C280.678 388.184 270.725 394.094 258.595 394.094C246.464 394.094 236.511 388.184 236.511 381.341L226.869 414.001V414.312C226.869 424.577 241.177 432.664 258.595 432.664C276.013 432.664 290.321 424.266 290.321 414.312V414.001L280.678 381.03Z" fill="url(#paint31_linear_42_13)"/>
<path d="M280.678 381.03C280.678 388.184 270.725 394.094 258.595 394.094C246.464 394.094 236.511 388.184 236.511 381.341L226.869 414.001V414.312C226.869 424.577 241.177 432.664 258.595 432.664C276.013 432.664 290.321 424.266 290.321 414.312V414.001L280.678 381.03Z" fill="url(#paint32_linear_42_13)"/>
<path d="M276.635 380.408C276.635 385.385 268.548 389.74 258.595 389.74C248.642 389.74 240.555 385.696 240.555 380.408C240.555 375.121 248.642 371.077 258.595 371.077C268.548 371.077 276.635 375.432 276.635 380.408Z" fill="url(#paint33_linear_42_13)"/>
<path d="M276.635 380.408C276.635 385.385 268.548 389.74 258.595 389.74C248.642 389.74 240.555 385.696 240.555 380.408C240.555 375.121 248.642 371.077 258.595 371.077C268.548 371.077 276.635 375.432 276.635 380.408Z" fill="url(#paint34_linear_42_13)"/>
<g style="mix-blend-mode:lighten">
<path d="M276.946 375.432L262.638 378.231L277.879 541.22C277.879 541.531 277.879 541.531 277.879 541.842C282.234 563.927 295.919 580.101 308.361 577.613C320.802 575.124 327.645 555.217 323.29 533.133C323.29 532.822 323.29 532.822 323.29 532.511L276.946 375.432Z" fill="url(#paint35_radial_42_13)"/>
</g>
<g style="mix-blend-mode:lighten">
<path d="M243.043 375.432L257.351 378.231L242.11 541.22C242.11 541.531 242.11 541.531 242.11 541.842C237.755 563.927 224.07 580.101 211.628 577.613C199.187 575.124 192.344 555.217 196.698 533.133C196.698 532.822 196.698 532.822 196.698 532.511L243.043 375.432Z" fill="url(#paint36_radial_42_13)"/>
</g>
<defs>
<linearGradient id="paint0_linear_42_13" x1="104.254" y1="146.764" x2="761.466" y2="311.24" gradientUnits="userSpaceOnUse">
<stop offset="0.0353535" stop-color="#ACC7AE"/>
<stop offset="0.5808" stop-color="#83AB85"/>
<stop offset="1" stop-color="white"/>
</linearGradient>
<linearGradient id="paint1_linear_42_13" x1="-22.4157" y1="219.317" x2="332.03" y2="166" gradientUnits="userSpaceOnUse">
<stop offset="0.0353535" stop-color="#ACC7AE"/>
<stop offset="0.5808" stop-color="white"/>
<stop offset="1" stop-color="#D6E3D6"/>
</linearGradient>
<linearGradient id="paint2_linear_42_13" x1="155.665" y1="-29.677" x2="131.936" y2="15.5437" gradientUnits="userSpaceOnUse">
<stop offset="0.0353535" stop-color="#9D9EB3"/>
<stop offset="0.5808" stop-color="#D4D1D8"/>
<stop offset="1" stop-color="#EEEBF2"/>
</linearGradient>
<linearGradient id="paint3_linear_42_13" x1="-36.1108" y1="188.965" x2="1164.43" y2="636.696" gradientUnits="userSpaceOnUse">
<stop offset="0.0353535" stop-color="#ACC7AE"/>
<stop offset="0.5808" stop-color="#83AB85"/>
<stop offset="1" stop-color="white"/>
</linearGradient>
<linearGradient id="paint4_linear_42_13" x1="-263.784" y1="284.3" x2="412.017" y2="132.813" gradientUnits="userSpaceOnUse">
<stop offset="0.0353535" stop-color="#ACC7AE"/>
<stop offset="0.5808" stop-color="white"/>
<stop offset="1" stop-color="#D6E3D6"/>
</linearGradient>
<linearGradient id="paint5_linear_42_13" x1="155.665" y1="-29.677" x2="131.936" y2="15.5437" gradientUnits="userSpaceOnUse">
<stop offset="0.0353535" stop-color="#9D9EB3"/>
<stop offset="0.5808" stop-color="#D4D1D8"/>
<stop offset="1" stop-color="#EEEBF2"/>
</linearGradient>
<linearGradient id="paint6_linear_42_13" x1="-29.3516" y1="375.033" x2="383.067" y2="1124.27" gradientUnits="userSpaceOnUse">
<stop offset="0.0353535" stop-color="#ACC7AE"/>
<stop offset="0.5808" stop-color="#83AB85"/>
<stop offset="1" stop-color="white"/>
</linearGradient>
<linearGradient id="paint7_linear_42_13" x1="-312.058" y1="392.346" x2="98.1612" y2="-86.5918" gradientUnits="userSpaceOnUse">
<stop offset="0.0353535" stop-color="#ACC7AE"/>
<stop offset="0.5808" stop-color="white"/>
<stop offset="1" stop-color="#D6E3D6"/>
</linearGradient>
<linearGradient id="paint8_linear_42_13" x1="296.354" y1="256.843" x2="956.26" y2="422.762" gradientUnits="userSpaceOnUse">
<stop offset="0.0353535" stop-color="#ACC7AE"/>
<stop offset="0.5808" stop-color="#83AB85"/>
<stop offset="1" stop-color="white"/>
</linearGradient>
<linearGradient id="paint9_linear_42_13" x1="170.764" y1="329.396" x2="523.634" y2="276.563" gradientUnits="userSpaceOnUse">
<stop offset="0.0353535" stop-color="#ACC7AE"/>
<stop offset="0.5808" stop-color="white"/>
<stop offset="1" stop-color="#D6E3D6"/>
</linearGradient>
<linearGradient id="paint10_linear_42_13" x1="348.106" y1="80.3719" x2="324.38" y2="125.587" gradientUnits="userSpaceOnUse">
<stop offset="0.0353535" stop-color="#9D9EB3"/>
<stop offset="0.5808" stop-color="#D4D1D8"/>
<stop offset="1" stop-color="#EEEBF2"/>
</linearGradient>
<linearGradient id="paint11_linear_42_13" x1="155.989" y1="299.044" x2="1358.68" y2="748.644" gradientUnits="userSpaceOnUse">
<stop offset="0.0353535" stop-color="#ACC7AE"/>
<stop offset="0.5808" stop-color="#83AB85"/>
<stop offset="1" stop-color="white"/>
</linearGradient>
<linearGradient id="paint12_linear_42_13" x1="-71.2316" y1="394.38" x2="604.57" y2="242.892" gradientUnits="userSpaceOnUse">
<stop offset="0.0353535" stop-color="#ACC7AE"/>
<stop offset="0.5808" stop-color="white"/>
<stop offset="1" stop-color="#D6E3D6"/>
</linearGradient>
<linearGradient id="paint13_linear_42_13" x1="348.106" y1="80.3719" x2="324.38" y2="125.587" gradientUnits="userSpaceOnUse">
<stop offset="0.0353535" stop-color="#9D9EB3"/>
<stop offset="0.5808" stop-color="#D4D1D8"/>
<stop offset="1" stop-color="#EEEBF2"/>
</linearGradient>
<linearGradient id="paint14_linear_42_13" x1="248.439" y1="378.845" x2="191.547" y2="266.961" gradientUnits="userSpaceOnUse">
<stop offset="0.0353535" stop-color="#ACC7AE"/>
<stop offset="0.5808" stop-color="#7AA57C"/>
<stop offset="1" stop-color="#D6E3D6"/>
</linearGradient>
<radialGradient id="paint15_radial_42_13" cx="0" cy="0" r="1" gradientUnits="userSpaceOnUse" gradientTransform="translate(254.255 231.168) rotate(179.297) scale(238.185 276.118)">
<stop stop-color="#D6E3D6" stop-opacity="0"/>
<stop offset="1" stop-color="#D6E3D6"/>
</radialGradient>
<linearGradient id="paint16_linear_42_13" x1="278.892" y1="277.013" x2="222" y2="165.13" gradientUnits="userSpaceOnUse">
<stop offset="0.0353535" stop-color="#ACC7AE"/>
<stop offset="0.5808" stop-color="#7AA57C"/>
<stop offset="1" stop-color="#D6E3D6"/>
</linearGradient>
<linearGradient id="paint17_linear_42_13" x1="-283.007" y1="31.7681" x2="438.794" y2="-122.528" gradientUnits="userSpaceOnUse">
<stop offset="0.0353535" stop-color="#83AB85"/>
<stop offset="0.5808" stop-color="#E9E9E9"/>
<stop offset="1" stop-color="#598F5C"/>
</linearGradient>
<radialGradient id="paint18_radial_42_13" cx="0" cy="0" r="1" gradientUnits="userSpaceOnUse" gradientTransform="translate(303.827 223.535) scale(74.1218 74.1243)">
<stop stop-color="white"/>
<stop offset="1"/>
</radialGradient>
<radialGradient id="paint19_radial_42_13" cx="0" cy="0" r="1" gradientUnits="userSpaceOnUse" gradientTransform="translate(317.107 136.466) scale(80.0912 80.094)">
<stop stop-color="white"/>
<stop offset="1"/>
</radialGradient>
<radialGradient id="paint20_radial_42_13" cx="0" cy="0" r="1" gradientUnits="userSpaceOnUse" gradientTransform="translate(223.24 161.682) scale(62.239 62.2411)">
<stop stop-color="white"/>
<stop offset="1"/>
</radialGradient>
<linearGradient id="paint21_linear_42_13" x1="390.724" y1="448.993" x2="335.513" y2="637.955" gradientUnits="userSpaceOnUse">
<stop stop-color="#7AA57C"/>
<stop offset="0.21875" stop-color="#ACC5AE"/>
<stop offset="0.536458" stop-color="#7AA57C"/>
<stop offset="1" stop-color="#7AA57C"/>
</linearGradient>
<linearGradient id="paint22_linear_42_13" x1="390.89" y1="298.886" x2="239.145" y2="588.071" gradientUnits="userSpaceOnUse">
<stop offset="0.0353535" stop-color="#7AA57C"/>
<stop offset="0.2438" stop-color="#7AA57C"/>
<stop offset="0.6455" stop-color="#ACC5AE"/>
<stop offset="1" stop-color="#7AA57C"/>
</linearGradient>
<radialGradient id="paint23_radial_42_13" cx="0" cy="0" r="1" gradientUnits="userSpaceOnUse" gradientTransform="translate(246.371 585.335) scale(64.6111 64.6133)">
<stop stop-color="white"/>
<stop offset="1"/>
</radialGradient>
<linearGradient id="paint24_linear_42_13" x1="371.988" y1="603.049" x2="142.256" y2="603.049" gradientUnits="userSpaceOnUse">
<stop stop-color="#598F5C"/>
<stop offset="0.666667" stop-color="#ACC5AE"/>
<stop offset="1" stop-color="#7AA57C"/>
</linearGradient>
<linearGradient id="paint25_linear_42_13" x1="201.548" y1="476.577" x2="316.049" y2="502.575" gradientUnits="userSpaceOnUse">
<stop stop-color="#ACC5AE"/>
<stop offset="0.25" stop-color="#F7F2F9"/>
<stop offset="0.4788" stop-color="#ACC5AE"/>
<stop offset="0.989583" stop-color="#7AA57C"/>
</linearGradient>
<linearGradient id="paint26_linear_42_13" x1="208.082" y1="356.016" x2="274.354" y2="389.151" gradientUnits="userSpaceOnUse">
<stop offset="0.0353535" stop-color="#06570B"/>
<stop offset="0.2438" stop-color="#7AA57C"/>
<stop offset="0.6455" stop-color="#ACC5AE"/>
<stop offset="1" stop-color="#ACC5AE"/>
</linearGradient>
<linearGradient id="paint27_linear_42_13" x1="178.749" y1="535.313" x2="283.08" y2="588.242" gradientUnits="userSpaceOnUse">
<stop stop-color="#598F5C"/>
<stop offset="0.25" stop-color="#83AB85"/>
<stop offset="1" stop-color="#598F5C"/>
</linearGradient>
<linearGradient id="paint28_linear_42_13" x1="156.048" y1="526.077" x2="295.641" y2="559.729" gradientUnits="userSpaceOnUse">
<stop offset="0.1875" stop-color="#598F5C"/>
<stop offset="0.333333" stop-color="#7AA57C"/>
<stop offset="0.4375" stop-color="#ACC5AE"/>
<stop offset="0.583257" stop-color="#83AB85"/>
<stop offset="1" stop-color="#598F5C"/>
</linearGradient>
<linearGradient id="paint29_linear_42_13" x1="200.654" y1="466.701" x2="281.128" y2="501.119" gradientUnits="userSpaceOnUse">
<stop stop-color="#598F5C"/>
<stop offset="0.25" stop-color="#83AB85"/>
<stop offset="1" stop-color="#598F5C"/>
</linearGradient>
<linearGradient id="paint30_linear_42_13" x1="185.548" y1="463.077" x2="291.537" y2="491.617" gradientUnits="userSpaceOnUse">
<stop offset="0.1875" stop-color="#598F5C"/>
<stop offset="0.333333" stop-color="#7AA57C"/>
<stop offset="0.4375" stop-color="#ACC5AE"/>
<stop offset="0.640625" stop-color="#83AB85"/>
<stop offset="1" stop-color="#598F5C"/>
</linearGradient>
<linearGradient id="paint31_linear_42_13" x1="222.558" y1="397.59" x2="276.049" y2="415.076" gradientUnits="userSpaceOnUse">
<stop stop-color="#598F5C"/>
<stop offset="0.25" stop-color="#83AB85"/>
<stop offset="1" stop-color="#598F5C"/>
</linearGradient>
<linearGradient id="paint32_linear_42_13" x1="222.558" y1="397.59" x2="281.049" y2="411.576" gradientUnits="userSpaceOnUse">
<stop offset="0.1875" stop-color="#598F5C"/>
<stop offset="0.333333" stop-color="#7AA57C"/>
<stop offset="0.4375" stop-color="#ACC5AE"/>
<stop offset="0.640625" stop-color="#83AB85"/>
<stop offset="1" stop-color="#598F5C"/>
</linearGradient>
<linearGradient id="paint33_linear_42_13" x1="276.23" y1="380.504" x2="235.982" y2="380.504" gradientUnits="userSpaceOnUse">
<stop offset="0.0353535" stop-color="#9F19AB"/>
<stop offset="0.1641" stop-color="#AE25B1"/>
<stop offset="0.4123" stop-color="#D744BF"/>
<stop offset="0.6313" stop-color="#FF63CE"/>
<stop offset="0.8737" stop-color="#DC48C1"/>
</linearGradient>
<linearGradient id="paint34_linear_42_13" x1="258.511" y1="373.316" x2="258.511" y2="442.075" gradientUnits="userSpaceOnUse">
<stop stop-color="white"/>
<stop offset="1"/>
</linearGradient>
<radialGradient id="paint35_radial_42_13" cx="0" cy="0" r="1" gradientUnits="userSpaceOnUse" gradientTransform="translate(289.145 477.034) rotate(-10.9043) scale(21.7551 66.0549)">
<stop stop-color="#10054D"/>
<stop offset="0.104" stop-color="#0D043D"/>
<stop offset="0.3199" stop-color="#070222"/>
<stop offset="0.5398" stop-color="#03010F"/>
<stop offset="0.7643" stop-color="#010004"/>
<stop offset="1"/>
</radialGradient>
<radialGradient id="paint36_radial_42_13" cx="0" cy="0" r="1" gradientUnits="userSpaceOnUse" gradientTransform="translate(230.942 477.034) rotate(-169.096) scale(21.7556 66.0565)">
<stop stop-color="#972A74"/>
<stop offset="0.0412825" stop-color="#8A266A"/>
<stop offset="0.1941" stop-color="#601B4A"/>
<stop offset="0.35" stop-color="#3D112F"/>
<stop offset="0.5074" stop-color="#220A1B"/>
<stop offset="0.6667" stop-color="#0F040C"/>
<stop offset="0.8293" stop-color="#040103"/>
<stop offset="1"/>
</radialGradient>
</defs>
</svg>
