<svg width="100" height="30" viewBox="0 0 100 30" fill="none" xmlns="http://www.w3.org/2000/svg">
<path d="M28.5169 16.6402H21.3088H21.2948L21.258 16.6787L21.2772 16.7103L21.1721 16.7471L21.1142 16.8259H21.0301L20.9916 16.8382V16.861L20.9478 16.9118V16.9486L20.9688 16.9644L20.9162 17.0432L20.8671 17.1063V17.1887L20.8216 17.2868L20.7094 17.4498L20.6428 17.4779H20.6043L20.62 17.4954V17.5427L20.599 17.5742L20.5324 17.7793L20.4816 17.909V17.9808L20.5692 18.0562L20.6341 18.1298H20.6761L20.7164 18.2437L20.6989 18.2805L20.6726 18.2717L20.6358 18.2963L20.6165 18.3716V18.4855L20.6621 18.5311V18.6047L20.62 18.6398L20.6306 18.7081L20.6639 18.7905H20.6463L20.6656 18.829L20.6779 18.8886L20.7147 18.9202L20.6831 18.971L20.7129 19.006L20.7445 19.0989L20.734 19.1462L20.8444 19.2514L20.925 19.2637L20.9916 19.3197V19.3513L21.0144 19.3653L21.0038 19.4389L20.9863 19.4757L21.0038 19.4897L20.939 19.5809V19.6142L20.9513 19.6369V19.6562L20.9267 19.679L20.9407 19.7894L20.9758 19.856L20.9583 19.8753V19.9541L20.9758 19.9734V20.0505L20.9425 20.0821L20.9548 20.1644L20.932 20.3187H20.9197L20.9372 20.345V20.4834H20.8899V20.5009L20.9057 20.5237H20.967L20.9846 20.5377L20.9986 20.6569L20.967 20.7025L20.9337 20.72L20.953 20.748V20.7778H20.9127L20.8689 20.8234L20.8812 20.8392L20.8952 20.8269H20.9337L20.9057 20.8672V20.9303H20.8671L20.7988 21.0162V21.0547L20.7375 21.1388H20.6866V21.1967L20.4798 21.3088H20.45L20.4343 21.3527L20.2362 21.4578H20.1609V21.4736L20.0697 21.5156L19.9453 21.598L19.9155 21.577V21.6155L19.8402 21.7084L19.8016 21.7259L19.7806 21.6751L19.7666 21.7557L19.7315 21.7662L19.7192 21.8118L19.5948 21.8872V21.9187L19.5633 21.9468L19.5335 21.9555V21.9993H19.4529L19.2776 22.1097V22.1798L19.2233 22.2201H19.1497L19.1181 22.2605L19.0603 22.2236H19.027V22.271L19.0568 22.306V22.3551L19.034 22.3866V22.4322L19.0007 22.4813L19.0901 22.6022V22.6443L19.0515 22.6758L19.0813 22.6898L19.1146 22.7441V22.8178L19.1514 22.8861L19.1357 23.0789L19.1532 23.1472H19.176V23.0929L19.211 23.0193V23.0841H19.225V23.1683L19.2005 23.1998V23.2839L19.2145 23.2962L19.1777 23.3943V23.4469L19.1497 23.482V23.545H19.1322L19.1444 23.5994L19.1917 23.5713L19.2023 23.6064L19.1637 23.6642L19.1444 23.7448L19.0323 23.864L18.8307 23.9551L18.5591 24.0095L18.4539 24.1094L18.3751 24.1286L18.3505 24.1654L18.312 24.197L18.2892 24.2741H18.2577L18.2279 24.2934L18.2419 24.3109L18.2717 24.367V24.423L18.2997 24.3862L18.3435 24.4003L18.3575 24.3477H18.3786V24.374L18.3663 24.4616L18.3348 24.5124V24.5755L18.298 24.6246H18.3155L18.2787 24.7368L18.2682 24.8331L18.2226 24.926L18.1928 25.0452L18.1472 25.0995L18.1332 25.1538L18.0509 25.2502H18.0228L18.0053 25.2765L17.9422 25.3063L17.9124 25.3414L17.8371 25.3904L17.8002 25.464L17.7389 25.5341V25.5639L17.7039 25.6305H17.6443L17.597 25.7217L17.4743 25.9512L17.3744 26.0441L17.3586 26.1317L17.3008 26.1563L17.2465 26.2211H17.2149L17.2009 26.2457L16.8767 26.5646H16.8381V26.5804L16.7855 26.64L16.5735 26.7767L16.5279 26.8257L16.4526 26.8485V26.8678L16.3334 26.8993L16.2668 26.9414H16.1967L16.1617 26.9151H16.067L15.9899 26.9397L15.9566 26.9957L16.0022 27.0343V27.0518H15.8935L15.8304 27.0203H15.7796L15.7358 27.0641L15.7551 27.1026L15.7358 27.1219L15.5868 27.0904L15.5448 27.0571L15.4011 27.022L15.3082 27.0395V27.0623L15.2591 27.0799L15.1873 27.0413H15.0208L14.9717 27.0641L14.9577 27.1167L14.9244 27.1009L14.8858 27.1114L14.8508 27.1394L14.8332 27.164H14.7596L14.7106 27.185L14.6194 27.1517L14.5458 27.178L14.5318 27.199L14.4565 27.1833L14.3899 27.2586L14.3338 27.2691L14.3145 27.3147L14.2812 27.3024L14.2514 27.3164L14.0972 27.2446L14.0656 27.2621V27.1885L14.0078 27.157L13.9623 27.1797L13.9342 27.1675L13.9587 27.1465L13.943 27.0816L13.8711 27.0693L13.8185 27.1149V27.171L13.78 27.1412V27.0781L13.801 27.0255L13.787 26.9484L13.8291 26.8783L13.7747 26.7802L13.7204 26.7311L13.6696 26.6522V26.5716L13.7029 26.5418L13.7327 26.5734H13.7607L13.7975 26.5331L13.815 26.4384L13.7817 26.3333V26.286L13.6941 26.1388V26.0704L13.6082 25.9582L13.5679 25.783L13.4943 25.6007V25.5131L13.4277 25.3238L13.3278 25.2502L13.3103 25.1503L13.2052 25.075L13.1876 25.0312L13.114 24.9576L13.0387 24.8086L12.9826 24.7315V24.6123L12.9335 24.558V24.4949L12.9668 24.4704L12.9388 24.4143L12.8967 24.3915L12.8739 24.2303L12.8371 24.183L12.881 24.1549L12.8529 24.0655L12.8634 23.9341L12.7705 23.6905V23.4522L12.7267 23.2927L12.7653 23.2752V23.1472L12.6023 22.9106V22.823L12.4463 22.6022L12.4235 22.4637L12.2693 22.1132L12.1712 21.938L11.9959 21.7505L11.9784 21.4858V21.4543L11.9924 21.3562V21.2054L12.0064 21.1073V20.9951L12.0923 20.8917L12.1098 20.7743L12.1852 20.6744V20.4256L12.2132 20.4028V20.2994L12.3885 20.1487V20.0733L12.5252 19.9699H12.562L12.6847 19.7403V19.4687L12.6461 19.4214V19.3706L12.5287 19.1778V19.0972L12.4814 19.0218V18.9097L12.4253 18.8816L12.5234 18.7554L12.5375 18.6328L12.4446 18.5013V18.2595L12.2693 18.0667V18.0229L12.236 17.9826L12.3254 17.9335L12.2676 17.9142H12.1782L12.1624 17.8774L12.1467 17.8406L12.1817 17.7758L12.1607 17.6864L12.1221 17.6461L12.0871 17.6058L12.0923 17.5392L12.0433 17.4849V17.4288L11.9504 17.3692L11.9171 17.3359L11.8557 17.2763L11.8417 17.2623L11.7874 17.2413L11.7839 17.1887L11.6717 17.1344L11.6419 17.066L11.5017 16.9539L11.4176 16.8645L11.4404 16.8487L11.3615 16.7821L11.3282 16.7103L11.2809 16.6629V16.5683L11.2248 16.4964V16.4474L11.1898 16.4193L11.1249 16.2826V16.2511L11.2003 16.2756L11.2599 16.2266L11.2739 16.0513L11.2827 15.9654L11.3177 16.0005L11.4544 15.9672L11.358 15.9444L11.2967 15.8463L11.3633 15.8357V15.7621V15.7446L11.2862 15.7043L11.3633 15.5571L11.4614 15.4467L11.4386 15.3924L11.4509 15.3801L11.5 15.3328L11.4544 15.2855L11.4965 15.1768L11.486 15.0576L11.4299 14.9788V14.8911L11.4509 14.8508L11.4036 14.7772L11.3125 14.8158L11.2844 14.7842H11.2301L11.1933 14.5932L11.1442 14.6195L11.1022 14.6002L11.0794 14.6142L11.0268 14.5599L10.9953 14.6475L10.9164 14.6633L10.8656 14.6335L10.7219 14.6861L10.6903 14.6668L10.629 14.7036L10.3293 14.7212L10.2171 14.6896L10.1365 14.6178L10.1015 14.5091L10.0594 14.4881V14.3847L9.9823 14.234L9.85612 14.1113L9.62829 13.9904L9.53015 14.0307L9.40923 14.0061H9.39696L9.18316 14.078L9.07275 14.064H9.03945L8.87296 14.1674H8.84667L8.67142 14.1884L8.52421 14.2602L8.36298 14.3952L8.17546 14.4127L7.90733 14.5406L7.7864 14.4863L7.61115 14.4635L7.59538 14.4355L7.55157 14.3531L7.49198 14.3671L7.47796 14.4443L7.34302 14.3847L7.18705 14.4355H6.77696L6.65954 14.4513V14.4828L6.44398 14.5599L6.4212 14.5915H6.35285L6.24419 14.6843L6.21616 14.6738L5.90947 14.5599L5.67288 14.3847H5.60803L5.41526 14.1919H5.40124L5.28557 14.1148H5.23825L5.15939 14.0009L5.10857 13.9781L5.13135 13.9343H5.12259L5.08228 13.8887H4.96486L4.80013 13.8028L4.73003 13.7853L4.74755 13.7468L4.70199 13.6977L4.66343 13.6591L4.68972 13.6066V13.5925L4.62663 13.6153L4.55653 13.54V13.4699L4.52498 13.3717H4.4654L4.44261 13.3226L4.48467 13.2438L4.44086 13.2192V13.1719L4.47416 13.1141L4.42859 13.0773L4.34447 13.0335L4.31994 12.9388H4.2551L4.22706 12.9108V12.8617L4.25159 12.8372L4.20603 12.8074L4.17799 12.8477L4.13067 12.8284H4.06057L3.99047 12.7321L4.01851 12.6181L3.96944 12.5638L3.89583 12.5848L3.88006 12.5673V12.5147L3.74862 12.5288L3.82223 12.4499H3.78718L3.8047 12.4219L3.77666 12.3903H3.72584L3.70656 12.364H3.85552L3.88181 12.3447L3.79944 12.2817L3.72408 12.2974L3.64522 12.3255H3.61017L3.59265 12.2817H3.52956L3.47348 12.2256L3.52956 12.1818H3.4875H3.3841L3.35781 12.1344V12.0749L3.32977 12.0416L3.38235 12.0556L3.41564 12.0661L3.48224 12.024L3.37709 11.9872L3.30699 12.024L3.29121 12.0013L3.32101 11.968V11.8751L3.28596 11.8295L3.34029 11.7752L3.40338 11.8558H3.4875L3.53481 11.812L3.46471 11.8313L3.3841 11.791L3.37008 11.7436L3.36132 11.7191L3.40338 11.6876L3.32977 11.635H3.35431V11.5719L3.29647 11.5631L3.22812 11.444L3.12297 11.3581L3.3175 11.1828L3.39812 11.0374L3.41039 10.9357L3.42791 10.8095L3.47698 10.6168L3.55234 10.5116L3.57337 10.2891L3.51203 9.96834L3.42616 9.82814L3.46121 9.80186H3.50502L3.5278 9.6967L3.50502 9.62836L3.54533 9.58805L3.45595 9.45486L3.41915 9.48465L3.38936 9.47764L3.36307 9.40228L3.29472 9.47764V9.35847L3.32977 9.28486V9.2726V9.17095L3.36307 9.10436V9.02725L3.40688 8.97993H3.44544L3.54358 8.80468L3.5979 8.78365L3.55935 8.75561V8.72581L3.68378 8.56108V8.51376L3.76089 8.33851L3.80645 8.31397L3.95191 8.17903L3.96243 8.08965L4.15345 7.81276L4.10438 7.72513L4.1885 7.67606L4.20953 7.61472L4.42509 7.50256H4.48117V7.37463L4.60209 7.19938L4.6757 7.09423L4.97888 7.03815L5.19444 6.84887H5.29258L5.38196 6.75249L5.40299 6.66661L5.59752 6.4458L5.61855 6.35642L5.5835 6.31261L5.55721 6.28632L5.59752 6.17065L5.5467 6.06726V6.00066L5.62731 5.83592L5.75174 5.72376V5.64841L5.70267 5.5415L5.84287 5.43986L5.88668 5.37326L5.96204 5.34873L6.08472 5.26636H6.13379L6.21966 5.17523L6.33357 5.13667L6.40192 5.08935H6.43522L6.57542 4.95967L6.61748 4.87905L6.6315 4.75112L6.6981 4.66349L6.71036 4.48824L6.76995 4.42165H6.81902L6.84355 4.39886L6.90489 4.37783L6.92242 4.40062L6.9119 4.41814V4.45319L6.92592 4.50226L6.95922 4.52855L7.04509 4.61968L7.11169 4.6337L7.20632 4.61968L7.27117 4.58463H7.32199L7.42188 4.61267L7.52177 4.59164L7.5761 4.53206H7.59889L7.61466 4.59164L7.65321 4.6302L7.82846 4.64422H7.87228H7.95465L8.04928 4.61442L8.10887 4.54958L8.11938 4.51278L8.15794 4.47773L8.23154 4.43917H8.31917L8.33669 4.41464L8.36999 4.39185H8.41205L8.43308 4.41113H8.46638L8.50493 4.36031V4.31299L8.57854 4.26743H8.62235L8.70822 4.25516L8.85894 4.13949L8.92729 4.15001H9.04646L9.11305 4.12723L9.18491 4.16578H9.23223L9.31109 4.08867L9.37067 4.11145H9.43552L9.46706 4.04836L9.50562 4.0396L9.5617 4.05713H9.59324L9.65809 4.06764L9.74045 4.05362L9.77901 4.06414H9.86313L9.90344 4.12723H9.97354L10.0366 4.07816H10.0857L10.126 4.09393L10.1646 4.04486L10.2277 4.03259V3.99053L10.2995 3.97301L10.3433 4.0063V4.05537L10.4502 4.06764L10.5028 4.01507V3.98352L10.5869 4.01331L10.6553 4.0729L10.7867 4.03434L10.8323 4.04486L10.9199 4.02733L10.9357 4.04661L11.0163 3.97651L11.1284 3.92043L11.2108 3.9029L11.2424 3.94847V3.90816L11.3107 3.89414L11.3493 3.92919V3.98352L11.3808 3.99404L11.4264 4.10094L11.4579 4.11846L11.4947 4.07991L11.6051 3.97826L11.6332 3.99929V4.06063L11.5718 4.15176V4.20784L11.4965 4.26042L11.4824 4.34103L11.5578 4.44268L11.6489 4.47773V4.57937L11.6717 4.59515L11.684 4.63896L11.6507 4.67401L11.677 4.71081L11.6542 4.74586L11.5648 4.83349L11.4106 4.94214L11.3808 5.03327L11.4299 5.12265L11.528 5.191L11.5736 5.18048L11.5876 5.2278L11.6297 5.24708L11.6524 5.2278V5.20502L11.6717 5.191L11.719 5.21729V5.2611L11.7278 5.2944L11.8207 5.35048H11.8575L11.9276 5.3645L11.9872 5.42058L12.1396 5.45388L12.357 5.41357L12.4428 5.44687H12.6181L12.7232 5.51521L12.9213 5.54325L13.0001 5.64665V5.74304L13.0965 5.92705L13.1999 5.97963H13.3191L13.3524 5.96035L13.4523 5.97262L13.6836 6.06901L13.8273 6.14261L13.9202 6.21797L14.0394 6.31611L14.1743 6.37044L14.2391 6.3459L14.3443 6.25653L14.3548 6.22673L14.4354 6.14612L14.4617 6.07602L14.4232 5.95159L14.3671 5.86396L14.3776 5.70449L14.4162 5.67469L14.4354 5.59057L14.5108 5.51697L14.6422 5.45388L14.7947 5.43986L14.8911 5.39079H14.9139L14.9805 5.42408L15.012 5.39604L15.0383 5.41006L15.1469 5.4381H15.2135L15.345 5.50996V5.54851L15.3204 5.55727L15.345 5.59232L15.4554 5.62212H15.536L15.5781 5.66067L15.7866 5.68521L15.8444 5.67645L15.9005 5.68521L15.9443 5.73603L15.9724 5.8219H16.0039H16.1581L16.2773 5.86046L16.5192 5.87974L16.6191 5.90077L16.7067 5.9621L16.7435 5.93932H16.7785L16.8679 5.9954H16.9731H17.0467L17.1588 6.0655H17.2622L17.2745 6.03746L17.3499 5.97262L17.4305 5.94633L17.469 5.9253L17.5531 5.87974L17.5899 5.85345H17.6776H17.7389L17.6898 5.87448H17.6303V5.8885L17.6513 5.90953L17.7196 5.88149H17.7792H17.8371V5.86046L17.7915 5.8517L17.809 5.83242L17.9142 5.86046L17.9773 5.88149H18.0281L18.0544 5.90778L18.0246 5.9218L18.0386 5.97612L18.1017 6.01117L18.1437 6.07427V6.03396L18.0859 5.97262L18.0999 5.92004L18.2138 5.99891L18.3681 5.95685L18.5661 5.99014L18.6502 5.95685L18.6905 5.90252L18.7238 5.91829L18.7852 6.00767L18.8167 6.12334L18.9043 6.25653L18.9727 6.41776L18.9464 6.49312L18.9867 6.59827L18.9744 6.61754L18.9271 6.79279V6.85939L18.8903 6.95227L18.9184 6.98031L18.8956 7.09072L18.8535 7.13103L18.8412 7.16783V7.15031L18.7589 7.10474L18.6099 6.94702L18.5924 6.88918L18.51 6.85238L18.4802 6.79104V6.7297L18.3593 6.62806V6.5895L18.3313 6.55621L18.3102 6.47734H18.2804L18.2682 6.45807L18.2542 6.47909V6.52116V6.56322L18.319 6.64734V6.71744L18.4347 6.85413L18.4487 6.9032L18.6239 7.05567L18.6502 7.10474L18.6379 7.15381V7.19938L18.7431 7.31329V7.34834L18.7746 7.38865L18.7869 7.50782L18.8202 7.56039V7.62524L18.999 7.90038L19.013 7.98801L19.0638 8.0213L19.1865 8.19656L19.2145 8.27892L19.2496 8.32098V8.29995L19.2689 8.31573L19.3197 8.39459H19.3495L19.3845 8.43139H19.2934L19.2706 8.41211V8.4384L19.2916 8.48046V8.55757L19.2776 8.60139L19.3249 8.76437L19.4213 8.82571H19.4792L19.5177 8.80818L19.5563 8.89055L19.6211 8.90983L19.6404 8.94838L19.7122 9.02199L19.7666 9.04302V9.06931V9.09735L19.7823 9.12188V9.13765L19.7929 9.15167V9.16394L19.8051 9.18147L19.8262 9.26734L19.8857 9.33919V9.36899H19.8717L19.863 9.34971L19.8384 9.31991L19.8279 9.33043V9.38651L19.9033 9.60908L19.919 9.73175L19.9015 9.84567L19.9436 9.97886L19.9997 10.0858L20.0505 10.0963L20.1872 10.1874V10.247H20.2503L20.3169 10.282V10.3259H20.3291L20.401 10.403L20.5307 10.743L20.5727 10.9655H20.5955L20.613 11.0479V11.0759L20.6551 11.09L20.6814 11.1548L20.6971 11.2512L20.7515 11.2652V11.1776H20.7375V11.1145L20.7602 11.104L20.8163 11.1846L20.7953 11.2074L20.8479 11.2862L20.8829 11.323L20.9145 11.302H20.96L20.9793 11.3143L21.0196 11.3003L21.0757 11.3633L21.1055 11.4001L21.1914 11.4212L21.2106 11.4527L21.3158 11.5701L21.3614 11.649L21.4244 11.6753L21.47 11.7296H21.4945V11.7121L21.5156 11.7401L21.5664 11.8698L21.6049 11.8803L21.6488 11.9364L21.6382 11.9557L21.6663 12.017H21.6978L21.7329 12.0346L21.7574 12.0118L21.7679 12.0293H21.7837V12.0521L21.8556 12.1222H21.8748V12.152L21.8854 12.2484L21.8538 12.2606L21.796 12.3255H21.7522L21.7206 12.3728H21.654L21.6891 12.4148H21.7101L21.7574 12.3938H21.838L21.8485 12.4148L21.8678 12.4534H21.8871L22.0816 12.69L22.1044 12.7373L22.136 12.7461L22.2131 12.8162L22.2884 12.8337L22.3778 12.8232L22.4058 12.7881L22.4865 12.7391H22.5373L22.6407 12.6549H22.6722L22.6898 12.6725H22.7739L22.8037 12.662L22.865 12.69L22.9561 12.6795L23.1437 12.5638L23.205 12.5515L23.2663 12.5778L23.3119 12.5638H23.396L23.4819 12.52H23.58L23.6098 12.5375H23.6414L23.7921 12.5095L23.8341 12.4569L23.9253 12.4446L23.9516 12.4674V12.4411L24.0462 12.4306L24.1023 12.3763H24.1128L24.1373 12.3325L24.1759 12.2957H24.2022V12.2817L24.239 12.3079L24.3178 12.336H24.3546H24.3687L24.3354 12.3833L24.3161 12.4324V12.4832L24.2986 12.5147L24.3126 12.541H24.3599V12.5586L24.3266 12.5866L24.3003 12.6514L24.3266 12.6882L24.3371 12.7408L24.3143 12.7899H24.3564V12.7741H24.3757L24.3949 12.8109L24.3739 12.8214V12.8092H24.3336H24.3073L24.2618 12.8863L24.2863 12.9266L24.274 13.0002L24.2547 13.0335V13.1141L24.1478 13.2631L24.076 13.4173L24.0304 13.4734H24.0059H28.5344C28.5584 13.4734 28.5814 13.4634 28.5977 13.4458C28.614 13.4281 28.6222 13.4044 28.6202 13.3805C28.6202 13.3402 28.6097 13.3016 28.6045 13.2631C28.5747 13.0195 28.5379 12.7776 28.4958 12.5375C28.4836 12.4639 28.4695 12.3886 28.4555 12.315C28.4012 12.0346 28.3416 11.7559 28.2715 11.4808C28.2715 11.4597 28.2592 11.4405 28.254 11.4194C28.1874 11.1636 28.112 10.9094 28.0314 10.6588C28.0086 10.587 27.9858 10.5151 27.9613 10.445C27.8772 10.1997 27.7861 9.95783 27.6949 9.71773C27.6844 9.69495 27.6774 9.67042 27.6669 9.64763C27.5617 9.38826 27.4478 9.13415 27.3286 8.88354C27.2971 8.81694 27.2638 8.7521 27.2323 8.68726C27.1283 8.47696 27.0196 8.27016 26.9063 8.06687L26.8327 7.93193C26.696 7.69826 26.5523 7.46459 26.4016 7.23092L26.2894 7.05567C26.1644 6.86757 26.0347 6.68355 25.9004 6.50363L25.7619 6.3757C25.5954 6.15839 25.4254 5.94458 25.2467 5.73778L25.1363 5.61336C24.9855 5.4381 24.8313 5.27337 24.6718 5.10863L24.5351 4.95616C24.3424 4.76163 24.1443 4.57061 23.941 4.3866L23.8622 4.32C23.6869 4.15702 23.4907 4.00104 23.2996 3.84858L23.1244 3.71013C22.9106 3.54539 22.6933 3.38416 22.4707 3.23169L22.4549 3.21943C22.2253 3.06345 21.9905 2.91449 21.7539 2.77078L21.5559 2.66037C21.3473 2.53945 21.137 2.42203 20.9232 2.30987L20.8111 2.25029C20.5657 2.12586 20.3133 2.01019 20.0592 1.89979L19.8647 1.81917C19.6527 1.72979 19.4371 1.64392 19.2198 1.56856L19.0445 1.50547C18.7817 1.41434 18.5188 1.33022 18.2436 1.25486L18.0684 1.20579C17.8441 1.14621 17.618 1.09188 17.3884 1.04281L17.1799 0.997242C16.9012 0.941162 16.6208 0.892091 16.3351 0.853536L16.195 0.836011C15.9478 0.804466 15.706 0.779931 15.4571 0.760653L15.2258 0.744881C14.9314 0.727355 14.637 0.715088 14.339 0.715088H14.2865C14.0061 0.715088 13.7239 0.727355 13.44 0.744881L13.1438 0.769416C12.944 0.785188 12.7443 0.806218 12.5445 0.830754C12.4183 0.846526 12.2886 0.860546 12.1624 0.879824H12.1344C5.70196 1.88741 0.752923 7.09756 0.0771105 13.5733C0.0771105 13.6013 0.0771105 13.6293 0.0771105 13.6574C0.0508228 13.8466 0.0368027 14.0342 0.0262877 14.2269C0.0262877 14.283 0.0262877 14.3391 0.0262877 14.4022C0 14.6142 0 14.8351 0 15.0576C0 15.0752 0 15.0927 0 15.1102C0 15.3153 0 15.5168 0.0140201 15.7201L0.0245351 15.8953C0.0350502 16.0706 0.0473178 16.2458 0.0648429 16.4316L0.075358 16.556C0.0981406 16.7698 0.126181 16.9819 0.157726 17.1922C0.157726 17.2448 0.173499 17.2956 0.182261 17.3482C0.208549 17.5234 0.238341 17.6811 0.271639 17.8459C0.282154 17.902 0.292669 17.958 0.304937 18.0211C0.346997 18.2279 0.394315 18.4347 0.44689 18.638C0.44689 18.6608 0.459158 18.6853 0.466168 18.7081C0.513486 18.8834 0.566061 19.0709 0.620389 19.2496L0.672964 19.4249C0.727292 19.6001 0.783372 19.7579 0.848215 19.9244C0.860483 19.9577 0.870998 19.9927 0.883265 20.026C0.955118 20.2205 1.03223 20.4133 1.11109 20.6043L1.17418 20.7498C1.23902 20.8988 1.30562 21.0477 1.37572 21.1967L1.44582 21.3439C1.53695 21.5297 1.62107 21.7119 1.72622 21.8924L1.77004 21.9695C1.85591 22.1273 1.94529 22.2815 2.03817 22.4357L2.1293 22.5847C2.22218 22.7354 2.31682 22.8843 2.41496 23.0316C2.43248 23.0561 2.44826 23.0824 2.46578 23.1087C2.5797 23.2839 2.69887 23.4434 2.81628 23.6081L2.91267 23.7361C3.01081 23.864 3.11071 23.9919 3.21235 24.1164C3.24565 24.1584 3.27719 24.1987 3.31224 24.239C3.44193 24.395 3.57512 24.5492 3.71182 24.6999L3.78017 24.7753C3.89758 24.9032 4.01851 25.0277 4.13943 25.1521L4.26211 25.2748C4.39179 25.4027 4.52323 25.5271 4.65642 25.6498L4.71075 25.7006C4.86146 25.8391 5.01744 25.9723 5.17341 26.102L5.30134 26.2054C5.42577 26.307 5.55371 26.4086 5.68339 26.5068L5.80431 26.5979C5.9673 26.7188 6.13379 26.838 6.30203 26.9484L6.39842 27.0098C6.54037 27.1044 6.68408 27.1973 6.82953 27.2867L6.9785 27.3778C7.13973 27.4742 7.30271 27.5688 7.46745 27.6599L7.51827 27.688C7.69352 27.7861 7.88279 27.879 8.06856 27.9684L8.21927 28.042C8.36824 28.1121 8.51895 28.1787 8.66967 28.2453L8.80637 28.3049C8.99739 28.3837 9.19016 28.4608 9.38469 28.5309L9.50386 28.5747C9.6651 28.6308 9.82633 28.6869 9.98931 28.7377L10.1646 28.7921C10.3556 28.8499 10.5484 28.9042 10.7411 28.955L10.7727 28.9638C10.9777 29.0164 11.1845 29.0637 11.3913 29.1075L11.5666 29.1408C11.7418 29.1741 11.8995 29.2039 12.0695 29.2319L12.215 29.2547C12.4253 29.2863 12.6374 29.3126 12.8494 29.3353L12.9914 29.3476C13.1666 29.3651 13.3419 29.3774 13.5171 29.3879L13.6924 29.3984C13.9114 29.4072 14.1322 29.4142 14.3531 29.4142C14.5739 29.4142 14.8122 29.4142 15.04 29.3984C15.1277 29.3984 15.2153 29.3862 15.2977 29.3809C15.4396 29.3704 15.5798 29.3634 15.72 29.3511C15.8111 29.3511 15.8953 29.3283 15.9899 29.3178C16.1248 29.3038 16.258 29.2898 16.3912 29.2705L16.6804 29.2232C16.8048 29.2021 16.9275 29.1846 17.0502 29.1618C17.1729 29.1391 17.25 29.118 17.3499 29.097C17.4497 29.076 17.5847 29.0497 17.7004 29.0216C17.816 28.9936 17.9019 28.9691 18.0018 28.9428C18.1017 28.9165 18.2279 28.8849 18.34 28.8534C18.4522 28.8219 18.5381 28.7921 18.6362 28.7605C18.7343 28.729 18.857 28.6939 18.9657 28.6571C19.0743 28.6203 19.1584 28.587 19.2548 28.552C19.3512 28.5169 19.4721 28.4749 19.5808 28.4328C19.6895 28.3907 19.7718 28.3522 19.8682 28.3119C19.9646 28.2716 20.0768 28.2277 20.1802 28.1822C20.2836 28.1366 20.3694 28.0928 20.4623 28.049C20.5552 28.0052 20.6674 27.9544 20.7673 27.9053C20.8671 27.8562 20.9425 27.8089 21.0406 27.7598C21.1388 27.7108 21.2404 27.6564 21.3386 27.6021C21.4367 27.5478 21.5138 27.4987 21.6032 27.4461C21.6926 27.3936 21.7995 27.334 21.8941 27.2709C21.9888 27.2078 22.0694 27.1605 22.1517 27.1044C22.2341 27.0483 22.341 26.9835 22.4339 26.9204C22.5268 26.8573 22.6004 26.8012 22.6845 26.7451C22.7686 26.689 22.8597 26.6172 22.9561 26.5506L23.1997 26.3596C23.2874 26.2912 23.375 26.2246 23.4609 26.1545L23.6939 25.9512C23.7781 25.8794 23.8692 25.8093 23.9446 25.7357C24.0199 25.6621 24.0935 25.5955 24.1689 25.5254C24.2442 25.4553 24.3319 25.3747 24.4125 25.2958C24.4931 25.2169 24.5544 25.1486 24.6263 25.0767C24.6981 25.0049 24.7823 24.9173 24.8576 24.8366C24.933 24.756 24.9961 24.6824 25.0644 24.6071C25.1328 24.5317 25.2134 24.4423 25.2852 24.3582C25.3571 24.2741 25.4149 24.1987 25.4797 24.1181C25.5446 24.0375 25.6217 23.9429 25.6901 23.8605C25.7584 23.7781 25.8127 23.6852 25.8758 23.6099C25.9389 23.5345 26.0073 23.4346 26.0721 23.3435C26.1369 23.2524 26.1878 23.1683 26.2474 23.0859C26.3069 23.0035 26.3718 22.9106 26.4226 22.8107C26.4734 22.7108 26.5313 22.6355 26.5873 22.5444C26.6434 22.4532 26.703 22.3568 26.7626 22.2605C26.8222 22.1641 26.8642 22.0852 26.9151 21.9836C26.9659 21.8819 27.022 21.7925 27.0728 21.6961C27.1236 21.5998 27.1692 21.5051 27.2165 21.4105C27.2638 21.3158 27.3146 21.2142 27.3602 21.1143C27.4058 21.0144 27.4461 20.9198 27.4899 20.8216C27.5337 20.7235 27.5793 20.6219 27.6213 20.5202C27.6634 20.4186 27.6984 20.3222 27.737 20.2223C27.7755 20.1224 27.8176 20.0155 27.8562 19.9103C27.8947 19.8052 27.9228 19.7088 27.9578 19.6089C27.9928 19.509 28.0297 19.3951 28.063 19.2882C28.0962 19.1813 28.1225 19.0832 28.1506 18.9798C28.1786 18.8764 28.2137 18.7642 28.2417 18.6538C28.2697 18.5434 28.2925 18.4435 28.3171 18.3366C28.3416 18.2297 28.3696 18.1193 28.3924 18.0089C28.4152 17.8985 28.4327 17.7933 28.452 17.6864C28.4713 17.5795 28.4958 17.4638 28.5133 17.3517C28.5309 17.2395 28.5431 17.1326 28.5589 17.024C28.5747 16.9153 28.587 16.8277 28.5975 16.7295C28.5995 16.6827 28.5636 16.643 28.5169 16.6402ZM11.6402 5.17172L11.5911 5.13317V5.11038H11.6489L11.6717 5.13842L11.6402 5.17172ZM4.64766 13.7485L4.6056 13.7222L4.59684 13.6942L4.61086 13.6714H4.64415L4.66869 13.7012V13.7433L4.64766 13.7485ZM10.4993 16.011L10.4642 16.0338H10.4397V15.976L10.4765 15.9374L10.5151 15.9619L10.4993 16.011ZM11.025 15.0226V14.9753H11.0654L11.0899 14.9034L11.1547 14.8368L11.1775 14.8578V14.9455L11.1319 15.0664L11.0724 15.0576L11.025 15.0226Z" fill="#0090FC"/>
<path d="M18.1739 24.53L18.1441 24.5353L18.123 24.5405L18.1739 24.53Z" fill="#0090FC"/>
<path d="M34.3496 24.0952L33.6486 25.7601H32.9336L35.6412 19.6123L38.2805 25.7601H37.5567L36.8645 24.0952H34.3496ZM35.6184 21.137L34.6143 23.4871H36.5928L35.6184 21.137Z" fill="#0090FC"/>
<path d="M47.7631 20.4992V22.2517H49.7171V22.8581H47.7631V25.769H47.1094V19.8911H49.7714V20.4992H47.7631Z" fill="#0090FC"/>
<path d="M59.4711 25.7603H58.8174V19.8911H59.6656C60.7802 19.8911 61.8142 20.1873 61.8142 21.5104C61.8142 22.413 61.2464 23.0526 60.3438 23.1298L62.212 25.7585H61.4093L59.6358 23.1823H59.4711V25.7603ZM59.4711 22.6058H59.6744C60.4139 22.6058 61.1605 22.4656 61.1605 21.5542C61.1605 20.5886 60.4595 20.5027 59.6656 20.5027H59.4711V22.6058Z" fill="#0090FC"/>
<path d="M71.8236 25.7603H71.1699V19.8911H71.8236V25.7603Z" fill="#0090FC"/>
<path d="M85.7435 21.1757C85.2741 20.6838 84.6254 20.4031 83.9455 20.3976C82.6381 20.3976 81.5796 21.535 81.5796 22.8266C81.5878 24.1481 82.6469 25.2228 83.9682 25.2503C84.6392 25.2326 85.2766 24.9526 85.7435 24.4704V25.2801C85.2338 25.6503 84.621 25.8519 83.991 25.8567C82.9066 25.8567 81.9045 25.2781 81.3623 24.339C80.8201 23.3999 80.8201 22.2428 81.3623 21.3037C81.9045 20.3645 82.9066 19.786 83.991 19.786C84.623 19.7765 85.2399 19.9789 85.7435 20.3608V21.1757ZM95.8976 24.0954L95.1966 25.7603H94.4798L97.1892 19.6125L99.8267 25.7603H99.1029L98.4019 24.0954H95.8976ZM97.1664 21.1372L96.1622 23.4873H98.1408L97.1664 21.1372ZM41.1474 12.7058H34.5247C34.5247 13.9852 35.1976 14.6757 36.4945 14.6757C37.1692 14.6757 37.6529 14.4513 37.9981 13.8643H41.0265C40.8036 14.827 40.1979 15.6573 39.3493 16.1635C38.4901 16.6664 37.5092 16.9234 36.5138 16.9066C33.5748 16.9066 31.3789 15.247 31.3789 12.1871C31.3789 9.23062 33.4013 7.45532 36.2859 7.45532C39.3633 7.45532 41.1439 9.3568 41.1439 12.3816L41.1474 12.7058ZM38.226 10.8902C38.0493 10.054 37.2998 9.46384 36.4454 9.48823C35.5289 9.48823 34.7683 9.97193 34.5772 10.8902H38.226Z" fill="#0090FC"/>
<path d="M50.8665 8.60135V3.5769H54.2559V16.6121H50.8665V11.2704H45.9735V16.6121H42.5859V3.5769H45.9735V8.60135H50.8665Z" fill="#0090FC"/>
<path d="M65.2462 12.7058H58.6252C58.6252 13.9852 59.2999 14.6757 60.595 14.6757C61.2698 14.6757 61.7535 14.4513 62.1005 13.8643H65.1253C64.9015 14.8285 64.293 15.6593 63.4411 16.1635C62.5819 16.6664 61.601 16.9234 60.6056 16.9066C57.6666 16.9066 55.4707 15.247 55.4707 12.1871C55.4707 9.23062 57.4931 7.45532 60.3777 7.45532C63.4551 7.45532 65.2357 9.3568 65.2357 12.3816L65.2462 12.7058ZM62.3248 10.8902C62.1481 10.054 61.3986 9.46384 60.5442 9.48823C59.6277 9.48823 58.8671 9.97193 58.676 10.8902H62.3248ZM76.6463 16.6122H73.4918V15.6273H73.4585C72.9047 16.5035 71.8146 16.9066 70.7771 16.9066C68.1484 16.9066 66.2995 14.7107 66.2995 12.1748C66.2995 9.63895 68.1151 7.45532 70.7438 7.45532C71.7638 7.45532 72.8346 7.83562 73.4918 8.61373V7.74273H76.6463V16.6122ZM69.5574 12.1871C69.5574 13.3105 70.3004 14.1744 71.5798 14.1744C72.8591 14.1744 73.6057 13.3105 73.6057 12.1871C73.6057 11.097 72.8591 10.1787 71.5798 10.1787C70.3004 10.1787 69.5574 11.097 69.5574 12.1871Z" fill="#0090FC"/>
<path d="M81.5266 16.612H78.3809V2.26245H81.5266V16.612Z" fill="#0090FC"/>
<path d="M93.7994 2.26245V8.86766H93.8344C94.56 7.89853 95.4415 7.44988 96.67 7.44988C98.9167 7.44988 99.9998 8.93601 99.9998 11.1827V16.6155H96.8453V12.066C96.8453 11.0285 96.6893 9.96298 95.4275 9.96298C94.1657 9.96298 93.7854 11.0355 93.7854 12.066V16.612H90.6309V2.26245H93.7994Z" fill="#0090FC"/>
<path d="M89.4442 7.74255H87.6636V2.26245H84.5161V7.74255H82.7373V10.3363H84.5161V16.612H87.6636V10.3363H89.4442V7.74255Z" fill="#0090FC"/>
</svg>
