<svg width="33" height="34" viewBox="0 0 33 34" fill="none" xmlns="http://www.w3.org/2000/svg">
<g clip-path="url(#clip0_26_1523)">
<path d="M29.3334 6H3.66671C3.18048 6 2.71416 6.19315 2.37034 6.53697C2.02653 6.88079 1.83337 7.3471 1.83337 7.83333V26.1667C1.83337 26.6529 2.02653 27.1192 2.37034 27.463C2.71416 27.8068 3.18048 28 3.66671 28H29.3334C29.8196 28 30.2859 27.8068 30.6297 27.463C30.9736 27.1192 31.1667 26.6529 31.1667 26.1667V7.83333C31.1667 7.3471 30.9736 6.88079 30.6297 6.53697C30.2859 6.19315 29.8196 6 29.3334 6ZM27.9217 26.1667H5.18837L11.605 19.53L10.285 18.2558L3.66671 25.1033V9.22667L15.0609 20.5658C15.4044 20.9073 15.869 21.099 16.3534 21.099C16.8377 21.099 17.3024 20.9073 17.6459 20.5658L29.3334 8.9425V24.9842L22.5867 18.2375L21.2942 19.53L27.9217 26.1667ZM4.86754 7.83333H27.8484L16.3534 19.2642L4.86754 7.83333Z" fill="#2B2B2A"/>
</g>
<defs>
<clipPath id="clip0_26_1523">
<rect width="33" height="33" fill="white" transform="translate(0 0.5)"/>
</clipPath>
</defs>
</svg>
