<svg width="131" height="25" viewBox="0 0 131 25" fill="none" xmlns="http://www.w3.org/2000/svg">
<g clip-path="url(#clip0_224_483)">
<path d="M19.0781 20.7221H27.6935V12.1067C25.4086 12.1067 23.2172 13.0144 21.6015 14.6301C19.9858 16.2458 19.0781 18.4371 19.0781 20.7221Z" fill="#7557D3"/>
<path d="M9.53906 12.1067V20.7221H18.1544C18.1544 19.5904 17.9316 18.4699 17.4986 17.4244C17.0656 16.379 16.4309 15.4291 15.6309 14.629C14.8308 13.829 13.881 13.1945 12.8358 12.7617C11.7905 12.3289 10.6703 12.1063 9.53906 12.1067Z" fill="#7557D3"/>
<path d="M0 12.1067C-6.38222e-08 13.2384 0.222872 14.3589 0.655871 15.4044C1.08887 16.4498 1.72349 17.3997 2.52354 18.1997C3.32359 18.9998 4.27337 19.6343 5.31862 20.0671C6.36387 20.4999 7.48413 20.7225 8.61539 20.7221V12.1067H0Z" fill="#7557D3"/>
<path d="M77.3942 4.10669L73.3684 15.1543L69.377 4.10669H65.8457L71.6631 19.4423L69.8486 24.4144H73.2274L80.9226 4.10669H77.3942Z" fill="black"/>
<path d="M129.387 4.1067C129.626 4.10706 129.861 4.16193 130.07 4.26605C130.286 4.36989 130.464 4.52733 130.582 4.71935C130.705 4.90669 130.769 5.11948 130.769 5.33612C130.769 5.55277 130.705 5.76556 130.582 5.9529C130.465 6.14415 130.288 6.30145 130.073 6.40621C129.862 6.51241 129.624 6.56823 129.382 6.56823C129.14 6.56823 128.902 6.51241 128.692 6.40621C128.478 6.30072 128.301 6.1436 128.182 5.9529C128.062 5.76542 127.999 5.55326 128 5.3375C128.001 5.12067 128.065 4.90771 128.185 4.71935C128.304 4.52656 128.483 4.36894 128.701 4.26605C128.91 4.16089 129.147 4.10597 129.387 4.1067ZM129.387 4.34847C129.196 4.34828 129.007 4.3918 128.84 4.47485C128.666 4.55896 128.522 4.68575 128.426 4.84023C128.329 4.99168 128.277 5.16293 128.275 5.3375C128.275 5.51102 128.326 5.6815 128.423 5.83201C128.519 5.98575 128.661 6.1124 128.834 6.19741C129.003 6.28371 129.194 6.32913 129.389 6.32913C129.583 6.32913 129.774 6.28371 129.943 6.19741C130.115 6.11158 130.257 5.98513 130.354 5.83201C130.451 5.6815 130.502 5.51102 130.502 5.3375C130.501 5.16293 130.448 4.99168 130.351 4.84023C130.26 4.68422 130.12 4.55459 129.949 4.4666C129.776 4.38459 129.583 4.34388 129.387 4.34847ZM128.769 5.99686V4.69188H129.538C129.618 4.69353 129.696 4.71139 129.767 4.74408C129.825 4.77352 129.873 4.81621 129.906 4.86772C129.943 4.92543 129.962 4.99084 129.962 5.05728C129.963 5.14698 129.926 5.23375 129.857 5.29905C129.779 5.36883 129.676 5.4125 129.566 5.42266C129.603 5.43327 129.638 5.45005 129.668 5.47211C129.705 5.50165 129.738 5.53485 129.767 5.57103C129.767 5.58477 129.813 5.63696 129.875 5.73036L130.048 6.0051H129.68L129.557 5.79356C129.508 5.69163 129.439 5.5985 129.353 5.51883C129.292 5.48116 129.22 5.46189 129.146 5.46388H129.069V6.01335L128.769 5.99686ZM129.078 5.25508H129.199C129.302 5.25853 129.405 5.25301 129.507 5.2386C129.547 5.22667 129.581 5.20469 129.606 5.17542C129.629 5.14523 129.64 5.10988 129.64 5.07377C129.642 5.03917 129.63 5.00514 129.606 4.9776C129.581 4.94792 129.545 4.92665 129.504 4.91717C129.403 4.89978 129.299 4.89332 129.195 4.89793H129.075L129.078 5.25508Z" fill="black"/>
<path d="M123.333 4.15221V6.22915C122.655 5.45298 121.809 4.83249 120.855 4.41216C119.902 3.99183 118.864 3.78208 117.818 3.79796C113.395 3.79796 110.154 7.35189 110.154 11.7971C110.154 16.2424 113.383 19.7963 117.818 19.7963C118.863 19.8116 119.899 19.6028 120.852 19.1846C121.805 18.7664 122.652 18.1491 123.333 17.3766V19.4392H126.77V4.15221H123.333ZM118.502 16.7852C115.743 16.7852 113.653 14.574 113.653 11.7886C113.653 9.00314 115.707 6.79194 118.502 6.79194C121.296 6.79194 123.333 9.01742 123.333 11.7886C123.333 14.5597 121.258 16.7852 118.502 16.7852Z" fill="black"/>
<path d="M88.1368 3.79794C89.1638 3.78223 90.1816 3.9924 91.117 4.41333C92.0524 4.83427 92.8822 5.45552 93.5467 6.23243V4.15225H96.9229V19.4421H93.5467V17.379C92.8786 18.1505 92.0477 18.7669 91.1129 19.1847C90.178 19.6024 89.162 19.8112 88.1368 19.7964C83.7956 19.7964 80.6152 16.2561 80.6152 11.7957C80.6152 7.33537 83.7956 3.79794 88.1368 3.79794ZM88.8051 16.7876C91.5101 16.7876 93.5467 14.5759 93.5467 11.79C93.5467 9.00407 91.5302 6.79247 88.8051 6.79247C86.0799 6.79247 84.049 9.01836 84.049 11.79C84.049 14.5617 86.1001 16.7876 88.8051 16.7876Z" fill="black"/>
<path d="M65.232 10.031V19.4894H61.8611V10.3177C61.8611 8.24543 60.4577 6.798 58.4243 6.798C56.325 6.798 54.4634 8.54352 54.4634 11.0428V19.4894H51.0781V4.15253H54.4634V6.19324C54.9943 5.45372 55.693 4.85089 56.502 4.43433C57.3111 4.01777 58.2075 3.79938 59.1174 3.79712C62.7976 3.79712 65.232 6.25343 65.232 10.031Z" fill="black"/>
<path d="M41.1833 17.0257C43.3528 17.0257 44.8909 16.2571 46.3971 14.7828L48.2219 16.54C46.5332 18.4542 44.4101 19.7971 41.2268 19.7971C36.068 19.7971 32.6152 16.2571 32.6152 11.7971C32.6152 7.33712 36.1751 3.79712 40.9284 3.79712C45.6064 3.79712 48.9229 7.26284 48.9229 11.4943C48.9214 11.9401 48.8718 12.3845 48.7752 12.82H36.0854C36.4156 15.2571 38.4489 17.0257 41.1833 17.0257ZM36.1925 10.2714H45.3833C44.9517 8.13426 43.2167 6.5857 40.9139 6.5857C39.8228 6.59234 38.7654 6.95875 37.9098 7.62664C37.0542 8.29453 36.4498 9.2255 36.1925 10.2714Z" fill="black"/>
<path d="M19.0781 2.56665C19.0781 4.85159 19.9858 7.04296 21.6015 8.65866C23.2172 10.2744 25.4086 11.182 27.6935 11.182V2.56665H19.0781Z" fill="#7557D3"/>
<path d="M9.53906 11.182C10.6703 11.1824 11.7905 10.9598 12.8358 10.527C13.881 10.0943 14.8308 9.45973 15.6309 8.65968C16.4309 7.85963 17.0656 6.90975 17.4986 5.8643C17.9316 4.81884 18.1544 3.69828 18.1544 2.56665H9.53906V11.182Z" fill="#7557D3"/>
<path d="M0 11.182H8.61539V2.56665C7.48413 2.56627 6.36387 2.78884 5.31862 3.22163C4.27337 3.65443 3.32359 4.28896 2.52354 5.08901C1.72349 5.88906 1.08887 6.83896 0.655871 7.88441C0.222872 8.92987 -6.38221e-08 10.0504 0 11.182Z" fill="#7557D3"/>
<path d="M109.231 17.2315V16.8467H107.788C105.85 16.8467 105.105 16.0311 105.105 14.3281V7.05102H109.038V4.08733H105.117V0.414307H101.724V4.0902H98.7695V7.0539H101.733V14.4803C101.733 18.0643 103.518 19.7989 106.764 19.7989C106.862 19.7989 106.963 19.7989 107.053 19.7989H109.228V17.2344L109.231 17.2315Z" fill="black"/>
</g>
<defs>
<clipPath id="clip0_224_483">
<rect width="131" height="24" fill="white" transform="translate(0 0.414307)"/>
</clipPath>
</defs>
</svg>
