<svg width="33" height="34" viewBox="0 0 33 34" fill="none" xmlns="http://www.w3.org/2000/svg">
<g clip-path="url(#clip0_224_572)">
<path fill-rule="evenodd" clip-rule="evenodd" d="M5.5 17C5.5002 14.8831 6.11121 12.8113 7.25971 11.033C8.40821 9.25479 10.0454 7.84572 11.9749 6.97489C13.9043 6.10406 16.0441 5.80847 18.1374 6.12358C20.2307 6.43868 22.1886 7.35111 23.7762 8.75137C25.3638 10.1516 26.5136 11.9802 27.0877 14.0178C27.6618 16.0553 27.6358 18.2152 27.0128 20.2384C26.3898 22.2615 25.1963 24.0619 23.5754 25.4235C21.9546 26.7851 19.9753 27.6501 17.875 27.9147V19.75H20.625C20.9897 19.75 21.3394 19.6051 21.5973 19.3473C21.8551 19.0894 22 18.7397 22 18.375C22 18.0103 21.8551 17.6606 21.5973 17.4027C21.3394 17.1449 20.9897 17 20.625 17H17.875V14.25C17.875 13.8853 18.0199 13.5356 18.2777 13.2777C18.5356 13.0199 18.8853 12.875 19.25 12.875H19.9375C20.3022 12.875 20.6519 12.7301 20.9098 12.4723C21.1676 12.2144 21.3125 11.8647 21.3125 11.5C21.3125 11.1353 21.1676 10.7856 20.9098 10.5277C20.6519 10.2699 20.3022 10.125 19.9375 10.125H19.25C18.156 10.125 17.1068 10.5596 16.3332 11.3332C15.5596 12.1068 15.125 13.156 15.125 14.25V17H12.375C12.0103 17 11.6606 17.1449 11.4027 17.4027C11.1449 17.6606 11 18.0103 11 18.375C11 18.7397 11.1449 19.0894 11.4027 19.3473C11.6606 19.6051 12.0103 19.75 12.375 19.75H15.125V27.9147C12.4667 27.5795 10.0221 26.2857 8.25 24.2762C6.47788 22.2666 5.50005 19.6793 5.5 17ZM16.5 30.75C24.0941 30.75 30.25 24.5941 30.25 17C30.25 9.40588 24.0941 3.25 16.5 3.25C8.90588 3.25 2.75 9.40588 2.75 17C2.75 24.5941 8.90588 30.75 16.5 30.75Z" fill="white"/>
</g>
<defs>
<clipPath id="clip0_224_572">
<rect width="33" height="33" fill="white" transform="translate(0 0.5)"/>
</clipPath>
</defs>
</svg>
