<svg width="100" height="39" viewBox="0 0 100 39" fill="none" xmlns="http://www.w3.org/2000/svg">
<path fill-rule="evenodd" clip-rule="evenodd" d="M5.03 1.596e-06C6.36281 -0.00105979 7.64146 0.527309 8.58474 1.4689C9.52802 2.41049 10.0587 3.6882 10.06 5.021C10.059 6.16834 9.66545 7.28079 8.94468 8.17347C8.22392 9.06615 7.21937 9.68529 6.098 9.928V12.155H9.131V14.287H6.098V16.907C7.16484 17.1483 8.11803 17.7449 8.80123 18.5991C9.48442 19.4532 9.85705 20.5142 9.858 21.608C9.85747 22.2415 9.73217 22.8686 9.48925 23.4536C9.24632 24.0386 8.89053 24.5701 8.44219 25.0176C7.99386 25.4651 7.46176 25.8199 6.87629 26.0617C6.29082 26.3035 5.66345 26.4277 5.03 26.427C4.39655 26.4277 3.76918 26.3035 3.18371 26.0617C2.59824 25.8199 2.06614 25.4651 1.61781 25.0176C1.16947 24.5701 0.813681 24.0386 0.570755 23.4536C0.327829 22.8686 0.202525 22.2415 0.202 21.608C0.202952 20.5142 0.575583 19.4532 1.25877 18.5991C1.94197 17.7449 2.89516 17.1483 3.962 16.907V14.287H0.929V12.155H3.962V9.928C2.84063 9.68529 1.83608 9.06615 1.11532 8.17347C0.394554 7.28079 0.000976969 6.16834 0 5.021C0.00132549 3.6882 0.531983 2.41049 1.47526 1.4689C2.41854 0.527309 3.6972 -0.00105979 5.03 1.596e-06ZM17.04 16.789C16.4065 16.7883 15.7791 16.9125 15.1936 17.1543C14.608 17.3961 14.0759 17.7509 13.6275 18.1984C13.179 18.6459 12.8232 19.1773 12.5801 19.7623C12.3371 20.3473 12.2117 20.9745 12.211 21.608C12.2117 22.2415 12.3371 22.8687 12.5801 23.4537C12.8232 24.0387 13.179 24.5701 13.6275 25.0176C14.0759 25.4651 14.608 25.8199 15.1936 26.0617C15.7791 26.3035 16.4065 26.4277 17.04 26.427C17.6735 26.4277 18.3008 26.3035 18.8863 26.0617C19.4718 25.8199 20.0039 25.4651 20.4522 25.0176C20.9005 24.5701 21.2563 24.0386 21.4992 23.4536C21.7422 22.8686 21.8675 22.2415 21.868 21.608C21.8667 20.3288 21.3573 19.1024 20.4519 18.1987C19.5465 17.295 18.3192 16.7879 17.04 16.789ZM5.03 28.776C5.66345 28.7753 6.29082 28.8995 6.87629 29.1413C7.46176 29.3831 7.99386 29.7379 8.44219 30.1854C8.89053 30.6329 9.24632 31.1644 9.48925 31.7494C9.73217 32.3344 9.85747 32.9616 9.858 33.595C9.85747 34.2285 9.73217 34.8556 9.48925 35.4406C9.24632 36.0256 8.89053 36.5571 8.44219 37.0046C7.99386 37.4521 7.46176 37.8069 6.87629 38.0487C6.29082 38.2905 5.66345 38.4147 5.03 38.414C4.39655 38.4147 3.76918 38.2905 3.18371 38.0487C2.59824 37.8069 2.06614 37.4521 1.61781 37.0046C1.16947 36.5571 0.813681 36.0256 0.570755 35.4406C0.327829 34.8556 0.202525 34.2285 0.202 33.595C0.202525 32.9616 0.327829 32.3344 0.570755 31.7494C0.813681 31.1644 1.16947 30.6329 1.61781 30.1854C2.06614 29.7379 2.59824 29.3831 3.18371 29.1413C3.76918 28.8995 4.39655 28.7753 5.03 28.776ZM17.04 28.776C16.4065 28.7753 15.7791 28.8995 15.1936 29.1413C14.608 29.3831 14.0759 29.7379 13.6275 30.1854C13.179 30.6329 12.8232 31.1643 12.5801 31.7493C12.3371 32.3343 12.2117 32.9615 12.211 33.595C12.2117 34.2285 12.3371 34.8557 12.5801 35.4407C12.8232 36.0257 13.179 36.5571 13.6275 37.0046C14.0759 37.4521 14.608 37.8069 15.1936 38.0487C15.7791 38.2905 16.4065 38.4147 17.04 38.414C17.6735 38.4147 18.3008 38.2905 18.8863 38.0487C19.4718 37.8069 20.0039 37.4521 20.4522 37.0046C20.9005 36.5571 21.2563 36.0256 21.4992 35.4406C21.7422 34.8556 21.8675 34.2285 21.868 33.595C21.8667 32.3158 21.3573 31.0894 20.4519 30.1857C19.5465 29.282 18.3192 28.7749 17.04 28.776ZM5.03 2.182C5.40317 2.18161 5.77276 2.25473 6.11766 2.39721C6.46256 2.53968 6.77602 2.7487 7.04012 3.01234C7.30423 3.27598 7.5138 3.58907 7.65688 3.93372C7.79996 4.27837 7.87374 4.64783 7.874 5.021C7.87374 5.39417 7.79996 5.76363 7.65688 6.10828C7.5138 6.45293 7.30423 6.76602 7.04012 7.02966C6.77602 7.2933 6.46256 7.50232 6.11766 7.6448C5.77276 7.78727 5.40317 7.8604 5.03 7.86C4.65683 7.8604 4.28724 7.78727 3.94234 7.6448C3.59743 7.50232 3.28398 7.2933 3.01988 7.02966C2.75577 6.76602 2.5462 6.45293 2.40312 6.10828C2.26004 5.76363 2.18626 5.39417 2.186 5.021C2.18626 4.64783 2.26004 4.27837 2.40312 3.93372C2.5462 3.58907 2.75577 3.27598 3.01988 3.01234C3.28398 2.7487 3.59743 2.53968 3.94234 2.39721C4.28724 2.25473 4.65683 2.18161 5.03 2.182ZM40.679 38.177H39.856C39.5739 38.1785 39.2944 38.1232 39.0342 38.0145C38.7739 37.9057 38.5382 37.7457 38.341 37.544C38.1479 37.3464 37.993 37.1149 37.884 36.861C37.771 36.5965 37.7135 36.3116 37.715 36.024V31.972H31.91V36.024C31.91 36.323 31.853 36.602 31.741 36.861C31.6321 37.1156 31.476 37.3473 31.281 37.544C31.0849 37.739 30.8543 37.896 30.601 38.007C30.344 38.119 30.066 38.177 29.769 38.177H28.947V23.706H29.769C30.066 23.706 30.344 23.765 30.601 23.877C30.858 23.989 31.084 24.142 31.281 24.336C31.477 24.533 31.629 24.758 31.741 25.016C31.853 25.275 31.91 25.554 31.91 25.85V29.544H37.715V25.85C37.7138 25.5634 37.7713 25.2796 37.884 25.016C37.996 24.758 38.148 24.533 38.341 24.336C38.531 24.142 38.758 23.989 39.018 23.877C39.278 23.765 39.559 23.706 39.856 23.706H40.679V38.177ZM52.097 36.092C52.047 36.1646 51.9925 36.2341 51.934 36.3C51.8616 36.3831 51.7872 36.4644 51.711 36.544C51.633 36.63 51.552 36.708 51.474 36.786L51.265 36.98C51.1309 37.0939 50.9918 37.2017 50.848 37.303C50.6971 37.4092 50.5391 37.5047 50.375 37.589C50.1977 37.6828 50.0143 37.7647 49.826 37.834C49.6283 37.9043 49.4274 37.9654 49.224 38.017C49.0037 38.072 48.7798 38.1118 48.554 38.136C48.3127 38.1641 48.0699 38.1778 47.827 38.177C47.012 38.177 46.295 38.045 45.665 37.779C45.3525 37.6528 45.0533 37.4957 44.772 37.31C43.9598 36.7806 43.3442 35.9987 43.02 35.085C42.7774 34.4522 42.6557 33.7796 42.661 33.102V32.724C42.661 32.323 42.692 31.945 42.746 31.588C42.803 31.228 42.891 30.881 43.01 30.551C43.24 29.877 43.561 29.306 43.97 28.833C44.3958 28.3549 44.9197 27.9743 45.506 27.717C46.095 27.452 46.768 27.319 47.529 27.319C48.287 27.319 48.947 27.442 49.502 27.69C49.792 27.823 50.057 27.972 50.294 28.142C50.7732 28.4981 51.169 28.9544 51.454 29.479C51.599 29.748 51.721 30.044 51.819 30.364C51.944 30.782 52.029 31.241 52.066 31.741V32.248C52.0563 32.4433 52.0066 32.6346 51.92 32.81C51.8362 32.9794 51.7216 33.1316 51.582 33.259C51.4414 33.3853 51.28 33.4865 51.105 33.558C50.9255 33.6305 50.7336 33.6675 50.54 33.667H45.476C45.503 33.84 45.54 34 45.588 34.153C45.631 34.306 45.689 34.449 45.753 34.582C45.892 34.864 46.071 35.102 46.291 35.296C46.487 35.486 46.738 35.64 47.042 35.752C47.313 35.857 47.638 35.912 48.013 35.912C48.524 35.912 48.991 35.82 49.421 35.633C49.725 35.507 49.996 35.419 50.229 35.374C50.4377 35.3284 50.6521 35.3145 50.865 35.333C51.051 35.354 51.224 35.402 51.372 35.48C51.525 35.555 51.667 35.657 51.799 35.783L52.097 36.092ZM45.733 30.877C45.6233 31.1636 45.5507 31.463 45.517 31.768H49.383V31.537C49.3772 31.2731 49.3362 31.0111 49.261 30.758C49.1847 30.5315 49.0678 30.3207 48.916 30.136C48.7581 29.9593 48.5612 29.8217 48.341 29.734C48.2197 29.6778 48.0911 29.6391 47.959 29.619C47.8135 29.5954 47.6664 29.584 47.519 29.585C47.242 29.577 46.9669 29.6317 46.714 29.745C46.4918 29.8509 46.2937 30.0014 46.132 30.187C45.9596 30.3918 45.8246 30.6254 45.733 30.877ZM59.282 30.258L59.232 30.248C59.14 30.241 59.052 30.238 58.971 30.234C58.886 30.231 58.802 30.228 58.717 30.228C58.4662 30.2251 58.2158 30.2489 57.97 30.299C57.7604 30.3392 57.5596 30.4164 57.377 30.527C57.2162 30.6176 57.0685 30.7296 56.938 30.86C56.809 30.99 56.701 31.143 56.617 31.313V36.834C56.6192 37.0211 56.5841 37.2069 56.5137 37.3803C56.4433 37.5537 56.339 37.7114 56.207 37.844C56.0794 37.9738 55.928 38.0777 55.761 38.15C55.5906 38.2217 55.4076 38.2589 55.2228 38.2595C55.0379 38.2601 54.8547 38.2241 54.6838 38.1535C54.5129 38.083 54.3577 37.9792 54.2271 37.8484C54.0966 37.7175 53.9932 37.562 53.923 37.391C53.8514 37.2141 53.8147 37.0249 53.815 36.834V27.391V27.401H54.4C54.874 27.408 55.301 27.533 55.679 27.775C56.061 28.017 56.349 28.336 56.548 28.734C56.745 28.336 57.033 28.017 57.415 27.775C57.7985 27.5319 58.2429 27.4023 58.697 27.401H59.282V30.258ZM66.495 34.051L69.073 25.441C69.1598 25.1312 69.3058 24.8412 69.503 24.587C69.698 24.339 69.925 24.132 70.189 23.972C70.7267 23.6353 71.3699 23.5092 71.995 23.618L72.838 23.758L68.298 36.85C68.1707 37.2345 67.9241 37.5683 67.594 37.803C67.266 38.038 66.894 38.157 66.484 38.157C66.069 38.157 65.696 38.038 65.365 37.799C65.0398 37.5634 64.797 37.2313 64.671 36.85L60.182 23.805L60.946 23.656C61.275 23.598 61.599 23.598 61.918 23.662C62.232 23.724 62.526 23.839 62.794 23.999C63.061 24.163 63.295 24.37 63.494 24.622C63.69 24.877 63.839 25.166 63.938 25.489L66.495 34.051ZM82.659 36.092C82.6093 36.1646 82.5552 36.2341 82.497 36.3C82.424 36.3828 82.3493 36.4642 82.273 36.544C82.195 36.63 82.114 36.708 82.036 36.786L81.827 36.98C81.6931 37.0941 81.554 37.2019 81.41 37.303C81.2593 37.4094 81.1012 37.505 80.937 37.589C80.7599 37.6826 80.5769 37.7645 80.389 37.834C80.199 37.902 79.996 37.963 79.787 38.017C79.5667 38.0719 79.3428 38.1117 79.117 38.136C78.8754 38.1641 78.6323 38.1778 78.389 38.177C77.574 38.177 76.857 38.045 76.228 37.779C75.915 37.653 75.6155 37.4959 75.334 37.31C74.5231 36.7791 73.9079 35.9978 73.582 35.085C73.3398 34.4522 73.2183 33.7796 73.224 33.102V32.724C73.224 32.323 73.254 31.945 73.308 31.588C73.3636 31.2349 73.452 30.8877 73.572 30.551C73.802 29.877 74.123 29.306 74.533 28.833C74.9588 28.3549 75.4827 27.9743 76.069 27.717C76.657 27.452 77.331 27.319 78.092 27.319C78.85 27.319 79.509 27.442 80.064 27.69C80.355 27.823 80.619 27.972 80.856 28.142C81.093 28.313 81.309 28.51 81.502 28.738C81.698 28.962 81.871 29.211 82.016 29.479C82.162 29.748 82.283 30.044 82.381 30.364C82.507 30.782 82.591 31.241 82.628 31.741V32.248C82.6186 32.4433 82.5692 32.6345 82.483 32.81C82.3133 33.1516 82.0229 33.4181 81.668 33.558C81.4881 33.6305 81.2959 33.6675 81.102 33.667H76.038C76.0879 33.9834 76.1814 34.2913 76.316 34.582C76.454 34.864 76.634 35.102 76.854 35.296C77.049 35.486 77.3 35.64 77.605 35.752C77.875 35.857 78.2 35.912 78.576 35.912C79.086 35.912 79.553 35.82 79.983 35.633C80.287 35.507 80.558 35.419 80.791 35.374C81.025 35.327 81.238 35.313 81.427 35.333C81.614 35.354 81.786 35.402 81.935 35.48C82.087 35.555 82.229 35.657 82.361 35.783L82.659 36.092ZM76.295 30.877C76.1872 31.1642 76.1147 31.4634 76.079 31.768H79.945V31.537C79.939 31.2732 79.8983 31.0112 79.824 30.758C79.7469 30.5316 79.6297 30.3209 79.478 30.136C79.3204 29.9593 79.1239 29.8217 78.904 29.734C78.7823 29.6779 78.6534 29.6392 78.521 29.619C78.3755 29.5953 78.2284 29.584 78.081 29.585C77.763 29.585 77.497 29.639 77.276 29.745C77.0538 29.8509 76.8557 30.0014 76.694 30.187C76.522 30.3921 76.3869 30.6256 76.295 30.877ZM92.737 33.792C92.943 34.163 93.044 34.612 93.044 35.139C93.044 35.609 92.939 36.041 92.726 36.425C92.53 36.809 92.236 37.15 91.847 37.442C91.6494 37.5924 91.4361 37.7211 91.211 37.826C90.981 37.935 90.73 38.034 90.46 38.122C89.922 38.282 89.32 38.36 88.643 38.36C87.885 38.36 87.229 38.255 86.681 38.041C86.4154 37.9455 86.1576 37.8295 85.91 37.694C85.6741 37.5661 85.4564 37.407 85.263 37.221C85.0473 37.0107 84.8545 36.778 84.688 36.527C84.5494 36.3115 84.4306 36.0839 84.333 35.847C84.2553 35.6556 84.1954 35.4574 84.154 35.255C84.1243 35.1071 84.1082 34.9568 84.106 34.806L84.117 33.53H84.682C85.003 33.53 85.307 33.591 85.591 33.714C85.876 33.836 86.126 34.007 86.346 34.217C86.576 34.469 86.739 34.779 86.83 35.146C86.844 35.211 86.861 35.279 86.88 35.343C86.9654 35.6082 87.1372 35.837 87.368 35.993C87.537 36.105 87.74 36.197 87.97 36.272C88.196 36.33 88.437 36.36 88.694 36.36C89.235 36.36 89.641 36.255 89.911 36.041C90.0401 35.9529 90.1453 35.8339 90.2169 35.695C90.2885 35.556 90.3242 35.4013 90.321 35.245C90.321 35.092 90.291 34.955 90.23 34.836C90.1621 34.6919 90.0505 34.5729 89.911 34.496C89.8196 34.4328 89.7225 34.3783 89.621 34.333C89.4987 34.2769 89.3747 34.2249 89.249 34.177C89.0908 34.1252 88.9303 34.0808 88.768 34.044C88.5716 33.9969 88.3756 33.9482 88.18 33.898C87.67 33.7897 87.1689 33.643 86.681 33.459C86.2577 33.2985 85.8583 33.0808 85.494 32.812C85.3367 32.6817 85.1906 32.5385 85.057 32.384C84.9272 32.2332 84.8139 32.0689 84.719 31.894C84.536 31.564 84.442 31.166 84.442 30.7C84.442 30.275 84.536 29.856 84.719 29.445C84.925 29.04 85.199 28.693 85.541 28.408C85.9358 28.0856 86.3867 27.8388 86.871 27.68C87.4384 27.5006 88.0309 27.4131 88.626 27.421C89.327 27.421 89.935 27.503 90.46 27.669C90.73 27.761 90.977 27.867 91.207 27.982C91.434 28.098 91.644 28.234 91.837 28.387C92.212 28.68 92.504 29.033 92.709 29.452C92.899 29.843 93.004 30.272 93.014 30.737V32.091H92.422C92.0771 32.0961 91.7356 32.0219 91.424 31.874C91.1307 31.7319 90.872 31.5275 90.666 31.275C90.6245 31.2301 90.5894 31.1796 90.562 31.125C90.522 31.0532 90.4879 30.9783 90.46 30.901C90.4243 30.8176 90.3926 30.7325 90.365 30.646C90.3362 30.5643 90.3115 30.4812 90.291 30.397C90.2564 30.261 90.2003 30.1314 90.125 30.013C90.0453 29.8846 89.9393 29.7745 89.814 29.69C89.6655 29.5787 89.4928 29.5041 89.31 29.472C89.0806 29.4346 88.8484 29.4176 88.616 29.421C88.146 29.421 87.784 29.53 87.523 29.751C87.3967 29.8455 87.2949 29.9689 87.2262 30.1109C87.1574 30.2529 87.1238 30.4093 87.128 30.567C87.1289 30.7176 87.1697 30.8652 87.2463 30.9949C87.3229 31.1246 87.4325 31.2316 87.564 31.305C87.638 31.36 87.723 31.411 87.821 31.455C87.923 31.503 88.037 31.551 88.169 31.595C88.295 31.635 88.433 31.676 88.585 31.717C88.738 31.755 88.903 31.792 89.079 31.826C89.635 31.931 90.165 32.068 90.666 32.234C90.91 32.316 91.136 32.408 91.339 32.513C91.545 32.622 91.735 32.738 91.915 32.863C92.094 32.989 92.25 33.132 92.385 33.289C92.52 33.442 92.639 33.612 92.737 33.792ZM98.799 36.245C98.826 36.252 98.9 36.258 99.022 36.269C99.144 36.279 99.272 36.286 99.408 36.289L99.787 36.299C99.902 36.303 99.973 36.303 100 36.296V36.833C100 37.065 99.952 37.279 99.861 37.476C99.7691 37.6674 99.6446 37.8414 99.493 37.99C99.3392 38.1362 99.1571 38.2496 98.958 38.323C98.7528 38.3993 98.533 38.4284 98.315 38.408C97.9672 38.3812 97.6208 38.3382 97.277 38.279C97.1051 38.2478 96.9414 38.1818 96.796 38.085C96.6567 37.9879 96.5234 37.8824 96.397 37.769C96.1477 37.5184 95.958 37.2149 95.842 36.881C95.7666 36.6874 95.7156 36.4852 95.69 36.279C95.6588 36.04 95.6441 35.7991 95.646 35.558V29.299H94.228V28.642C94.2303 28.3133 94.363 27.9989 94.597 27.768C94.8339 27.5334 95.1536 27.4016 95.487 27.401H95.646V24.094H96.218C96.4888 24.0934 96.7569 24.1479 97.006 24.254C97.253 24.36 97.466 24.503 97.652 24.686C97.835 24.87 97.98 25.084 98.085 25.329C98.19 25.574 98.244 25.836 98.244 26.115V27.401H99.888V28.047C99.8884 28.2112 99.8564 28.3738 99.7939 28.5257C99.7314 28.6775 99.6395 28.8155 99.5236 28.9318C99.4077 29.048 99.27 29.1403 99.1184 29.2034C98.9667 29.2664 98.8042 29.2989 98.64 29.299H98.244V35.279C98.244 35.476 98.264 35.646 98.305 35.786C98.329 35.847 98.356 35.901 98.383 35.956C98.4086 36.0067 98.4456 36.0509 98.491 36.085C98.5739 36.1699 98.6818 36.226 98.799 36.245Z" fill="#540A45"/>
</svg>
