<svg width="33" height="34" viewBox="0 0 33 34" fill="none" xmlns="http://www.w3.org/2000/svg">
<path d="M16.501 12.875C15.407 12.875 14.3577 13.3096 13.5842 14.0832C12.8106 14.8568 12.376 15.906 12.376 17C12.376 18.094 12.8106 19.1432 13.5842 19.9168C14.3577 20.6904 15.407 21.125 16.501 21.125C17.595 21.125 18.6442 20.6904 19.4178 19.9168C20.1914 19.1432 20.626 18.094 20.626 17C20.626 15.906 20.1914 14.8568 19.4178 14.0832C18.6442 13.3096 17.595 12.875 16.501 12.875ZM16.501 10.125C18.3243 10.125 20.073 10.8493 21.3623 12.1386C22.6516 13.428 23.376 15.1766 23.376 17C23.376 18.8234 22.6516 20.572 21.3623 21.8614C20.073 23.1507 18.3243 23.875 16.501 23.875C14.6776 23.875 12.9289 23.1507 11.6396 21.8614C10.3503 20.572 9.62598 18.8234 9.62598 17C9.62598 15.1766 10.3503 13.428 11.6396 12.1386C12.9289 10.8493 14.6776 10.125 16.501 10.125ZM25.4385 9.78125C25.4385 10.2371 25.2574 10.6743 24.9351 10.9966C24.6127 11.3189 24.1756 11.5 23.7197 11.5C23.2639 11.5 22.8267 11.3189 22.5044 10.9966C22.1821 10.6743 22.001 10.2371 22.001 9.78125C22.001 9.32541 22.1821 8.88824 22.5044 8.56591C22.8267 8.24358 23.2639 8.0625 23.7197 8.0625C24.1756 8.0625 24.6127 8.24358 24.9351 8.56591C25.2574 8.88824 25.4385 9.32541 25.4385 9.78125ZM16.501 6C13.0992 6 12.5437 6.00963 10.9611 6.07975C9.8831 6.13063 9.15985 6.275 8.48885 6.53625C7.92732 6.74241 7.41967 7.07286 7.00385 7.50287C6.57349 7.91867 6.24259 8.4263 6.03585 8.98787C5.7746 9.66162 5.63023 10.3835 5.58073 11.4601C5.50923 12.9781 5.4996 13.5089 5.4996 17C5.4996 20.4031 5.50923 20.9572 5.57935 22.5399C5.63023 23.6165 5.7746 24.3411 6.03448 25.0107C6.26823 25.6089 6.54323 26.0392 6.99973 26.4958C7.4631 26.9578 7.89348 27.2341 8.48473 27.4624C9.16398 27.725 9.88723 27.8707 10.9597 27.9202C12.4777 27.9917 13.0085 28 16.4996 28C19.9027 28 20.4569 27.9904 22.0395 27.9202C23.1147 27.8694 23.838 27.725 24.5104 27.4651C25.0714 27.2579 25.5788 26.9276 25.9954 26.4985C26.4587 26.0365 26.7351 25.6061 26.9634 25.0135C27.2246 24.337 27.3704 23.6138 27.4199 22.5385C27.4914 21.0219 27.4996 20.4897 27.4996 17C27.4996 13.5983 27.49 13.0428 27.4199 11.4601C27.369 10.3849 27.2232 9.65887 26.9634 8.98787C26.7561 8.4269 26.4258 7.91948 25.9967 7.50287C25.5811 7.07229 25.0734 6.74135 24.5117 6.53487C23.838 6.27362 23.1147 6.12925 22.0395 6.07975C20.5229 6.00825 19.9935 6 16.501 6ZM16.501 3.25C20.2369 3.25 20.703 3.26375 22.1701 3.3325C23.6331 3.40125 24.6314 3.63088 25.5072 3.97188C26.4147 4.32113 27.1792 4.79412 27.9437 5.55725C28.6429 6.24461 29.1839 7.07606 29.5291 7.99375C29.8687 8.86962 30.0997 9.86787 30.1685 11.3322C30.2331 12.798 30.251 13.2641 30.251 17C30.251 20.7359 30.2372 21.202 30.1685 22.6677C30.0997 24.1321 29.8687 25.129 29.5291 26.0062C29.1849 26.9244 28.6437 27.7561 27.9437 28.4428C27.2562 29.1417 26.4248 29.6827 25.5072 30.0281C24.6314 30.3678 23.6331 30.5988 22.1701 30.6675C20.703 30.7321 20.2369 30.75 16.501 30.75C12.7651 30.75 12.299 30.7362 10.8319 30.6675C9.36885 30.5988 8.37198 30.3678 7.49473 30.0281C6.57668 29.6837 5.74508 29.1425 5.05823 28.4428C4.35894 27.7555 3.81792 26.924 3.47285 26.0062C3.13185 25.1304 2.90223 24.1321 2.83348 22.6677C2.76748 21.202 2.75098 20.7359 2.75098 17C2.75098 13.2641 2.76473 12.798 2.83348 11.3322C2.90223 9.86787 3.13185 8.871 3.47285 7.99375C3.81693 7.0755 4.35808 6.24382 5.05823 5.55725C5.74527 4.85769 6.57682 4.31663 7.49473 3.97188C8.3706 3.63088 9.36748 3.40125 10.8319 3.3325C12.299 3.26787 12.7651 3.25 16.501 3.25Z" fill="white"/>
</svg>
