<svg width="33" height="34" viewBox="0 0 33 34" fill="none" xmlns="http://www.w3.org/2000/svg">
<path d="M16.5 8.75C15.4802 8.75 14.4833 9.05241 13.6353 9.61899C12.7874 10.1856 12.1265 10.9909 11.7362 11.933C11.346 12.8752 11.2439 13.912 11.4428 14.9122C11.6418 15.9124 12.1329 16.8312 12.854 17.5523C13.5751 18.2734 14.4939 18.7645 15.4941 18.9634C16.4943 19.1624 17.531 19.0603 18.4732 18.67C19.4154 18.2797 20.2207 17.6188 20.7873 16.7709C21.3538 15.923 21.6562 14.9261 21.6562 13.9062C21.6562 12.5387 21.113 11.2272 20.146 10.2602C19.179 9.29325 17.8675 8.75 16.5 8.75ZM16.5 17C15.8881 17 15.29 16.8186 14.7812 16.4786C14.2724 16.1387 13.8759 15.6555 13.6417 15.0902C13.4076 14.5249 13.3463 13.9028 13.4657 13.3027C13.5851 12.7026 13.8797 12.1513 14.3124 11.7186C14.7451 11.286 15.2963 10.9913 15.8964 10.8719C16.4966 10.7526 17.1186 10.8138 17.6839 11.048C18.2492 11.2822 18.7324 11.6787 19.0724 12.1875C19.4123 12.6962 19.5938 13.2944 19.5938 13.9062C19.5938 14.7268 19.2678 15.5137 18.6876 16.0939C18.1074 16.6741 17.3205 17 16.5 17ZM16.5 2.5625C13.4925 2.56591 10.6092 3.76215 8.48253 5.88878C6.3559 8.0154 5.15966 10.8987 5.15625 13.9062C5.15625 17.9539 7.02668 22.2439 10.5703 26.3135C12.1626 28.1524 13.9547 29.8083 15.9135 31.2506C16.0869 31.3721 16.2934 31.4372 16.5052 31.4372C16.7169 31.4372 16.9234 31.3721 17.0968 31.2506C19.052 29.8077 20.8406 28.1518 22.4297 26.3135C25.9682 22.2439 27.8438 17.9539 27.8438 13.9062C27.8403 10.8987 26.6441 8.0154 24.5175 5.88878C22.3908 3.76215 19.5075 2.56591 16.5 2.5625ZM16.5 29.1172C14.3692 27.4414 7.21875 21.2861 7.21875 13.9062C7.21875 11.4447 8.19659 9.08399 9.93716 7.34341C11.6777 5.60284 14.0385 4.625 16.5 4.625C18.9615 4.625 21.3223 5.60284 23.0628 7.34341C24.8034 9.08399 25.7812 11.4447 25.7812 13.9062C25.7812 21.2836 18.6308 27.4414 16.5 29.1172Z" fill="#2B2B2A"/>
</svg>
