<svg width="17" height="16" viewBox="0 0 17 16" fill="none" xmlns="http://www.w3.org/2000/svg">
<path d="M13.84 10.2533C13.02 10.2533 12.2267 10.12 11.4867 9.88C11.3707 9.8407 11.2461 9.83487 11.127 9.86317C11.0079 9.89147 10.8992 9.95275 10.8133 10.04L9.76667 11.3533C7.88 10.4533 6.11333 8.75333 5.17333 6.8L6.47333 5.69333C6.65333 5.50667 6.70667 5.24667 6.63333 5.01333C6.38667 4.27333 6.26 3.48 6.26 2.66C6.26 2.3 5.96 2 5.6 2H3.29333C2.93333 2 2.5 2.16 2.5 2.66C2.5 8.85333 7.65333 14 13.84 14C14.3133 14 14.5 13.58 14.5 13.2133V10.9133C14.5 10.5533 14.2 10.2533 13.84 10.2533Z" fill="white"/>
</svg>
