<svg width="166" height="33" viewBox="0 0 166 33" fill="none" xmlns="http://www.w3.org/2000/svg">
<path d="M10.5715 27.3941L12.2765 20.0887L6.60742 15.1772L14.075 14.531L16.9997 7.64087L19.9243 14.5296L27.3905 15.1759L21.7228 20.0874L23.4278 27.3927L16.9997 23.5152L10.5715 27.3941Z" fill="white"/>
<path d="M43.5715 27.3941L45.2765 20.0887L39.6074 15.1772L47.075 14.531L49.9997 7.64087L52.9243 14.5296L60.3905 15.1759L54.7228 20.0874L56.4278 27.3927L49.9997 23.5152L43.5715 27.3941Z" fill="white"/>
<path d="M76.5715 27.3941L78.2765 20.0887L72.6074 15.1772L80.075 14.531L82.9997 7.64087L85.9243 14.5296L93.3905 15.1759L87.7228 20.0874L89.4278 27.3927L82.9997 23.5152L76.5715 27.3941Z" fill="white"/>
<path d="M109.572 27.3941L111.277 20.0887L105.607 15.1772L113.075 14.531L116 7.64087L118.924 14.5296L126.391 15.1759L120.723 20.0874L122.428 27.3927L116 23.5152L109.572 27.3941Z" fill="white"/>
<path d="M142.572 27.3941L144.277 20.0887L138.607 15.1772L146.075 14.531L149 7.64087L151.924 14.5296L159.391 15.1759L153.723 20.0874L155.428 27.3927L149 23.5152L142.572 27.3941Z" fill="white"/>
</svg>
