<svg width="19" height="18" viewBox="0 0 19 18" fill="none" xmlns="http://www.w3.org/2000/svg">
<path d="M12.125 10.5001H11.5325L11.3225 10.2976C11.7912 9.75308 12.1338 9.11168 12.3256 8.41931C12.5175 7.72694 12.554 7.00072 12.4325 6.2926C12.08 4.2076 10.34 2.5426 8.23998 2.2876C7.50169 2.1942 6.75182 2.27093 6.04775 2.51192C5.34368 2.75291 4.70406 3.15177 4.17785 3.67798C3.65165 4.20419 3.25279 4.8438 3.0118 5.54787C2.77081 6.25194 2.69408 7.00181 2.78748 7.7401C3.04248 9.8401 4.70748 11.5801 6.79248 11.9326C7.5006 12.0541 8.22682 12.0177 8.91919 11.8258C9.61156 11.6339 10.253 11.2913 10.7975 10.8226L11 11.0326V11.6251L14.1875 14.8126C14.495 15.1201 14.9975 15.1201 15.305 14.8126C15.6125 14.5051 15.6125 14.0026 15.305 13.6951L12.125 10.5001ZM7.62498 10.5001C5.75748 10.5001 4.24998 8.9926 4.24998 7.1251C4.24998 5.2576 5.75748 3.7501 7.62498 3.7501C9.49248 3.7501 11 5.2576 11 7.1251C11 8.9926 9.49248 10.5001 7.62498 10.5001Z" fill="white"/>
</svg>
