<svg width="72" height="34" viewBox="0 0 72 34" fill="none" xmlns="http://www.w3.org/2000/svg">
<g clip-path="url(#clip0_224_497)">
<mask id="mask0_224_497" style="mask-type:luminance" maskUnits="userSpaceOnUse" x="0" y="0" width="72" height="34">
<path d="M0 0.875488H72V33.4143H0V0.875488Z" fill="white"/>
</mask>
<g mask="url(#mask0_224_497)">
<path d="M1.12443 28.7057L0.597347 31.4465C0.527069 31.6573 0.527069 31.833 0.527069 32.0439C0.527069 32.6412 0.87846 32.9223 1.37041 32.9223C2.00291 32.9223 2.45972 32.5007 2.63542 31.4465L3.19764 28.7057H3.75987L3.23278 31.4465C2.98681 32.8169 2.31916 33.3792 1.33527 33.3792C0.527069 33.3792 -0.0351562 32.9575 -0.0351562 32.0087L-1.7155e-05 31.3411L0.49193 28.6705H1.12443V28.7057ZM4.56807 33.3792L4.98973 31.0248C5.09515 30.6383 5.09515 30.3221 5.16543 30.0409H5.65738L5.55196 30.6734C5.83307 30.1815 6.28988 29.9355 6.78183 29.9355C7.16836 29.9355 7.59003 30.1815 7.59003 30.8491L7.55489 31.4114L7.16836 33.3089H6.57099L6.92238 31.4114L6.95752 30.9546C6.95752 30.6383 6.81697 30.3923 6.43044 30.3923C6.04391 30.3923 5.44654 30.8491 5.30599 31.6925L4.98973 33.3089H4.56807V33.3792ZM8.8199 33.3792L9.4524 30.0409H10.0498L9.41726 33.3792H8.8199ZM9.55782 29.0922C9.55782 28.9165 9.76865 28.7057 9.94435 28.7057C10.1552 28.7057 10.2957 28.8462 10.2957 29.057C10.2957 29.303 10.1552 29.4436 9.90921 29.4436C9.69837 29.4436 9.55782 29.303 9.55782 29.0922ZM12.5095 29.1625L12.3689 30.0409H13.142L13.0366 30.4626H12.2635L11.9824 32.079C11.9121 32.2898 11.9121 32.4304 11.9121 32.6412C11.9121 32.8169 12.0176 32.9223 12.2284 32.9223H12.4744L12.4041 33.3792L11.9824 33.4143C11.4905 33.4143 11.2796 33.1332 11.2796 32.7818L11.3148 32.1493L11.6662 30.4626H11.1742L11.2796 30.0409H11.7716L11.9121 29.303L12.5095 29.1625ZM16.1991 33.1683C15.9531 33.3089 15.5315 33.4143 15.1098 33.4143C14.2313 33.4143 13.8448 32.8169 13.8448 32.079C13.8448 31.0951 14.5827 29.9355 15.6369 29.9355C16.2694 29.9355 16.6208 30.3221 16.6208 30.7789C16.6208 31.6573 15.6369 31.9033 14.407 31.833C14.3719 32.0087 14.407 32.2898 14.4773 32.5007C14.6178 32.7818 14.8638 32.9223 15.2152 32.9223C15.6017 32.9223 15.8829 32.7818 16.0937 32.6764L16.1991 33.1683ZM15.5315 30.3923C15.0044 30.3923 14.6178 30.9194 14.4773 31.4114C15.3558 31.4114 16.0234 31.3059 16.0234 30.7789C16.0234 30.5329 15.8477 30.3923 15.5315 30.3923ZM21.0483 28.4597L20.3104 32.2898C20.2401 32.6412 20.1698 33.0278 20.1698 33.3089H19.6076L19.713 32.6764C19.4319 33.1683 18.9751 33.4143 18.5534 33.4143C17.8858 33.4143 17.5695 32.8872 17.5695 32.1844C17.5695 31.0248 18.448 29.9355 19.6076 29.9355C19.8184 29.9355 20.0644 29.9707 20.205 30.0409L20.4861 28.4597H21.0483ZM20.0995 30.5329C19.9941 30.4275 19.8184 30.3923 19.5725 30.3923C18.7994 30.3923 18.1318 31.2005 18.1318 32.079C18.1318 32.5007 18.3075 32.9223 18.7994 32.9223C19.2211 32.9223 19.7833 32.4304 19.9238 31.6925L20.0995 30.5329ZM24.4568 28.7759C24.773 28.7057 25.1244 28.6705 25.4407 28.6705C25.9326 28.6705 26.284 28.7759 26.53 28.9868C26.7408 29.1976 26.8814 29.4436 26.8814 29.7247C26.8814 30.3221 26.3894 30.7789 25.8975 30.9194C26.3543 31.06 26.6706 31.4114 26.6706 31.9385C26.6706 32.4304 26.4246 32.7818 26.1435 33.0278C25.7921 33.3089 25.265 33.4143 24.6325 33.4143L23.6486 33.3792L24.4568 28.7759ZM24.2811 32.8872L24.773 32.9223C25.4407 32.9223 26.1083 32.6412 26.1083 31.9033C26.1083 31.3411 25.6515 31.0951 25.1244 31.0951H24.6676L24.2811 32.8872ZM24.7028 30.6734H25.1596C25.7921 30.6734 26.3543 30.3221 26.3543 29.795C26.3543 29.3382 26.0029 29.1625 25.511 29.1625L25.019 29.1976L24.7028 30.6734ZM29.9736 33.3792L30.079 32.5358C29.7277 33.2035 29.2357 33.4494 28.7789 33.4494C28.2167 33.4494 27.8653 32.9575 27.8653 32.3953C27.8653 31.2005 28.7086 30.0409 30.1493 30.0409C30.4656 30.0409 30.8521 30.0761 31.0629 30.1815L30.7116 31.9033C30.6061 32.5007 30.571 33.0629 30.571 33.4143H29.9736V33.3792ZM30.3602 30.4275L29.9736 30.3923C29.1303 30.3923 28.3924 31.2708 28.3924 32.1844C28.3924 32.571 28.5329 32.9223 28.9897 32.9223C29.4817 32.9223 30.0088 32.2898 30.1493 31.4114L30.3602 30.4275ZM31.9766 33.3792L32.4334 31.0248L32.5739 30.0409H33.0659L32.9605 30.6734C33.2416 30.1815 33.6984 29.9355 34.1903 29.9355C34.5769 29.9355 35.0337 30.1815 35.0337 30.8491L34.9634 31.4114L34.5769 33.3089H33.9795L34.3309 31.4114L34.366 30.9546C34.366 30.6383 34.2255 30.3923 33.8389 30.3923C33.4524 30.3923 32.855 30.8491 32.7145 31.6925L32.4334 33.3089H31.9766V33.3792ZM36.2987 33.3792L37.2123 28.53H37.7745L37.1771 31.5519C37.2826 31.4465 37.4231 31.3059 37.4583 31.2005L38.653 30.0409H39.3206L37.8799 31.4114L38.8287 33.3792H38.1962L37.4231 31.7628L36.9663 32.1493L36.7203 33.4143H36.2987V33.3792ZM41.9912 33.3792L42.5183 30.4626H42.0966L42.1669 30.0409H42.6237L42.6588 29.8301C42.7643 29.3382 42.9048 28.9516 43.2211 28.6705C43.3968 28.4597 43.713 28.3543 43.9941 28.3543C44.2401 28.3543 44.3807 28.4245 44.4509 28.4597L44.2752 28.9165C44.205 28.8462 44.0995 28.8462 43.959 28.8462C43.5022 28.8462 43.2562 29.303 43.1508 29.8301V30.0409H43.8887L43.7833 30.4626H43.0805L42.5183 33.3792H41.9912ZM47.6135 31.3411C47.6135 32.3953 46.8755 33.4494 45.7511 33.4494C44.9429 33.4494 44.4861 32.8169 44.4861 32.079C44.4861 31.0248 45.2591 29.9707 46.3484 29.9707C47.2269 29.9355 47.6135 30.6383 47.6135 31.3411ZM45.0834 32.0439C45.0834 32.571 45.3646 32.9575 45.8565 32.9575C46.5593 32.9575 47.0512 32.079 47.0512 31.3411C47.0512 30.9546 46.8404 30.4275 46.243 30.4275C45.5754 30.3923 45.0834 31.2708 45.0834 32.0439ZM48.6676 33.3792L49.0542 31.2005C49.1596 30.7789 49.1947 30.3221 49.2299 30.0409H49.7218L49.6515 30.7789C49.8272 30.3221 50.2137 29.9707 50.6706 29.9707H50.8111L50.7057 30.5329H50.5651C50.0732 30.5329 49.6515 31.0951 49.4758 31.9033L49.1947 33.3792H48.6676ZM54.2899 31.9033L53.552 33.3792H52.9546L55.3792 28.7759H56.0468L56.7145 33.3792H56.1171L55.9063 31.9033H54.2899ZM55.8711 31.4114L55.6603 30.0761C55.6252 29.8301 55.6252 29.4787 55.5549 29.2327L55.1684 30.0761L54.5007 31.4114H55.8711ZM57.8741 33.3792L58.4012 30.4626H57.9795L58.0849 30.0409H58.5066L58.5769 29.8301C58.6471 29.3382 58.8228 28.9516 59.1039 28.6705C59.2796 28.4597 59.5959 28.3543 59.877 28.3543C60.123 28.3543 60.2635 28.4245 60.3338 28.4597L60.1933 28.9165C60.0878 28.8462 59.9824 28.8462 59.8419 28.8462C59.3851 28.8462 59.1391 29.303 59.0688 29.8301L58.9985 29.9707H59.7364L59.631 30.4275H58.8931L58.366 33.3089H57.8741V33.3792ZM60.3689 33.3792L60.7555 31.2005L60.9663 30.0409H61.4583L61.3528 30.7789C61.5637 30.3221 61.9502 29.9707 62.3719 29.9707H62.5476L62.4422 30.5329H62.3016C61.8097 30.5329 61.3528 31.0951 61.2123 31.9033L60.9312 33.3792H60.3689ZM63.1801 33.3792L63.8126 30.0409H64.4099L63.7774 33.3792H63.1801ZM63.918 29.0922C63.918 28.9165 64.0586 28.7057 64.3045 28.7057C64.4802 28.7057 64.6559 28.8462 64.6559 29.057C64.6559 29.303 64.4802 29.4436 64.2342 29.4436C64.0586 29.4436 63.918 29.303 63.918 29.0922ZM67.6427 33.2035C67.4319 33.3089 67.0805 33.4143 66.6588 33.4143C65.7804 33.4143 65.3938 32.8169 65.3938 32.1493C65.3938 31.0248 66.202 29.9707 67.3968 29.9707C67.6779 29.9707 67.9941 30.0761 68.0644 30.1464L67.9239 30.568C67.7833 30.5329 67.6427 30.4275 67.3968 30.4275C66.5183 30.4275 65.9561 31.2708 65.9561 32.0439C65.9561 32.571 66.2723 32.9223 66.7994 32.9223C67.1508 32.9223 67.3968 32.8169 67.5725 32.7115L67.6427 33.2035ZM70.981 33.3792L71.0512 32.5358C70.735 33.2035 70.243 33.4494 69.7862 33.4494C69.1889 33.4494 68.8726 32.9575 68.8726 32.3953C68.8726 31.2005 69.6808 30.0409 71.1566 30.0409C71.4729 30.0409 71.8594 30.0761 72.0351 30.1815L71.7189 31.9033C71.6135 32.5007 71.5432 33.0629 71.5432 33.4143H70.981V33.3792ZM71.3675 30.4275L70.981 30.3923C70.1376 30.3923 69.3997 31.2708 69.3997 32.1844C69.3997 32.571 69.5403 32.9223 69.9971 32.9223C70.489 32.9223 71.0161 32.2898 71.1566 31.4114L71.3675 30.4275ZM14.2665 9.02776L12.1581 18.7964C11.5256 20.9048 10.366 22.3806 7.90628 22.486C5.79793 22.486 4.9546 21.0805 5.48168 18.1288L7.34405 9.02776H4.25181L2.10833 19.4641C1.7218 23.4699 4.07612 24.5944 7.66031 24.489C11.0688 24.3835 13.4231 22.8374 14.7584 19.7452L17.1127 9.02776H14.2665ZM40.3045 13.9472L41.5344 19.0073H36.9663L40.3045 13.9472ZM41.2533 9.02776L30.8872 24.1376H33.6984L35.6662 21.221H42.1318L42.7643 24.1376H46.1025L42.4129 9.02776H41.2533ZM51.3382 24.243H57.2767C62.6179 23.997 63.7774 21.5724 62.0556 17.5314L55.5549 4.84621L51.3382 24.243ZM65.9209 0.875488C60.5798 1.12146 59.4553 3.5812 61.1771 7.58706L67.6427 20.2723L71.8594 0.875488H65.9209ZM21.1889 22.2401L22.2782 17.1449H23.508C25.3001 17.1449 26.8111 17.7774 26.8111 19.4641C26.8111 21.5021 24.8082 22.3455 22.5593 22.3455L21.1889 22.2401ZM23.5432 10.9604H25.019C26.6354 10.9604 27.6193 11.3469 27.6193 12.6471C27.6193 14.1932 26.1435 15.1771 23.9297 15.1771H22.6998L23.5432 10.9604ZM21.1889 9.02776L20.9429 9.0629L17.8155 24.2078H23.8243C25.8624 24.2078 27.0219 23.6456 27.795 23.1888C29.0249 22.3806 29.9034 21.0805 30.2196 19.4992C30.6061 17.3557 29.1303 16.2313 27.3031 16.0556C29.1654 15.6339 30.7467 14.2635 30.8521 12.2957C31.0981 9.02776 27.4085 9.02776 27.4085 9.02776H21.1889Z" fill="#D71920"/>
</g>
</g>
<defs>
<clipPath id="clip0_224_497">
<rect width="72" height="32.5388" fill="white" transform="translate(0 0.875488)"/>
</clipPath>
</defs>
</svg>
